<?xml version="1.0" encoding="utf-8"?>
<!-- Generator: Adobe Illustrator 17.1.0, SVG Export Plug-In . SVG Version: 6.00 Build 0)  -->
<!DOCTYPE svg PUBLIC "-//W3C//DTD SVG 1.1//EN" "http://www.w3.org/Graphics/SVG/1.1/DTD/svg11.dtd">
<svg version="1.1" id="Layer_2" xmlns="http://www.w3.org/2000/svg" xmlns:xlink="http://www.w3.org/1999/xlink" x="0px" y="0px"
	 viewBox="0 0 426.5 116" enable-background="new 0 0 426.5 116" xml:space="preserve">
<g>
	<g>
		<g>
			<path d="M117.3,50.7c-2.4,0-4.2,2.2-4.2,4.5c0,1.7,0.9,2.3,2.5,2.3c2.1,0,4.1-2.1,4.1-4.6C119.7,51.3,118.7,50.7,117.3,50.7z
				 M116,56.9c-0.8,0-1-0.9-1-1.8c0-1.6,0.7-3.8,1.8-3.8c0.9,0,1,0.5,1,1.7C117.8,54.5,117.2,56.9,116,56.9z M111.5,49.3l-0.2-0.1
				c-0.6,0.4-1.2,0.7-1.8,1.3l-0.1,0.4l-1.3,0.2l0,0.3l1.2,0.1l-0.7,3.6c-0.1,0.4-0.2,1.1-0.2,1.3c0,0.7,0.3,1.1,0.9,1.1
				c1.6,0,2.6-1.1,3.1-1.8l-0.3-0.3c-0.3,0.3-1,1.1-1.5,1.1c-0.4,0-0.5-0.3-0.5-0.7c0-0.2,0-0.6,0.2-1.2l0.6-3.2l1.8-0.1l0-0.3
				l-1.8-0.2C111.1,50.4,111.4,49.6,111.5,49.3z M77.3,34.6h-5.9v0.5l0.5,0.1c1,0.1,1,0.4,1,2.2V44c0,1.8,0,2.1-1,2.2l-0.5,0.1v0.5
				h6.4v-0.5l-0.8-0.1c-1-0.1-1.1-0.3-1.1-2.2v-8.5c0.4-0.1,0.7-0.1,1.1-0.1c1.9,0,3.4,0.9,3.4,2.8c0,2.2-1.5,2.8-3.1,3v0.7
				c2.3-0.1,6-0.8,6-3.9C83.3,35,80.1,34.6,77.3,34.6z M93.2,34.4c-4.3,0-8,2.3-8,6.5c0,4.1,3.5,6.1,7.8,6.1c4.3,0,8-2.3,8-6.5
				C101,36.3,97.5,34.4,93.2,34.4z M93.2,46.3c-3.4,0-4.8-2.8-4.8-5.8c0-2.9,1.4-5.4,4.5-5.4c3.5,0,4.8,2.8,4.8,5.8
				C97.7,43.8,96.3,46.3,93.2,46.3z M117.9,35.1l1,0.1c0.4,0.1,0.8,0.1,0.8,0.4c0,0.3-0.2,1.1-0.5,2.1l-2,5.9h0l-3.9-8.8
				c-0.4,0-0.8,0.1-1.1,0.2l-3.3,8.6h0l-2.5-7c-0.1-0.2-0.3-0.8-0.3-0.9c0-0.2,0.2-0.3,0.9-0.4l0.9-0.1v-0.5h-6.4v0.5l0.6,0.1
				c0.8,0.2,0.9,0.5,1.3,1.5l4,10.1c0.5,0,0.9-0.1,1.4-0.2l3.3-8.2h0l3.8,8.4c0.5,0,0.9-0.1,1.4-0.2l3.4-8.9c0.7-1.8,1-2.5,1.8-2.6
				l0.6-0.1v-0.5h-5.2V35.1z M132.3,45.8c-0.8,0-2.5,0.1-3.2-0.1v-4.9h1.6c1.9,0,2.2,0,2.3,0.8l0.1,0.6h0.6v-3.6h-0.6l-0.1,0.6
				c-0.1,0.8-0.4,0.8-2.4,0.8H129v-4.7h2.5c2.3,0,3.1,0,3.7,2.4l0.8-0.1c0-0.9,0-2-0.3-3h-11.2v0.5l0.5,0.1c1,0.2,1,0.1,1,2.2V44
				c0,2.1,0,2-1,2.2l-0.5,0.1v0.5h11.7c0.4-1.1,0.6-2.1,0.7-3.3l-0.8-0.1C135.7,44.6,135.6,45.8,132.3,45.8z M151.5,45.5
				c-1.5-1.7-3.3-3.9-3.7-4.5c1.3-0.5,2.4-1.6,2.4-3.2c0-2.9-2.5-3.2-4.5-3.2h-6.9v0.5l0.5,0.1c1.1,0.1,1.1,0.3,1.1,2.2V44
				c0,1.8,0,2-1,2.2l-0.5,0.1v0.5h6.1v-0.5l-0.5-0.1c-1-0.1-1-0.3-1-2.2v-2.5h0.7c1.4,0,1.8,0.7,2.6,1.9l0.8,1.4
				c0.5,0.8,1.5,2,3.7,2h2.2v-0.5C152.9,46.2,152,46,151.5,45.5z M144.3,40.8h-1.1v-5.3c0.4-0.1,0.8-0.1,1.2-0.1
				c1.8,0,3.4,0.9,3.4,2.6C147.8,38.7,147.5,40.8,144.3,40.8z"/>
		</g>
	</g>
	<g>
		<g>
			<path fill="#0079C1" d="M109.1,70.7c-0.5,0.4-0.7,0.5-1,0.7c-0.3,0.2-0.8,0.4-1.3,0.4c-1.8,0-2.1-2.9-2.2-3.4
				c-0.1-0.6-0.1-1.6-0.1-1.6c-0.1-1.3-0.1-2.5,0.2-4.8c0.1-1.2,0.3-1.9,0.5-2.6c-0.2-0.2-0.5-0.3-0.7-0.3c-0.6,0-1.3,0.7-1.6,1.2
				l-5.8,8.1c-0.5,0.3-0.5,0.2-0.5-0.2c0,0,1.6-4.2,1.9-5.1c0.3-0.9,1.3-3.4,1.6-4.2c0.3-0.7,0.9-2.2,1.6-4c0.7-1.8,1.4-3.5,2.1-4.6
				c0.3-0.6,0.2-1.6,0-1.9c-0.1-0.1-0.3-0.2-0.6-0.3c-0.3,0-0.4,0.1-0.6,0.2c-0.4,0.3-0.5,0.6-0.7,1.4c-0.2,0.7-0.4,1.6-1.1,3.4
				c-0.7,1.8-2.3,6.6-2.9,8.3c-0.6,1.7-2.3,7-2.8,8.2c-0.4,1.1-0.7,1.8-1.4,3.5c0.2,0.3,0.3,0.5,0.7,0.5c0.2,0,0.7-0.1,1.2-0.3
				c0.1-0.5,0.5-1.1,0.7-1.6c0.2-0.4,0.6-1.1,0.9-1.5c0.3-0.5,1-1.6,1.3-1.9c0.6-0.9,1.4-1.8,1.7-2.2c0.4-0.6,1.4-1.8,1.6-2.1
				c0.2-0.3,0.4-0.6,0.7-0.6c0.4,0,0.5,0.7,0.5,1.4c0,0.3,0,1.7,0,2.3c0,1.4,0.2,3.5,0.6,4.8c0.2,1,1,1.8,1.9,1.8
				c0.2,0,0.6-0.1,0.9-0.2c0.7-0.2,1.1-0.5,1.6-1c0.6-0.5,1.1-1.1,2.2-2.4c0.4-0.5,0.6-0.8,0.8-1.2c-0.1-0.1-0.2-0.2-0.3-0.2
				C110.1,69.7,109.6,70.3,109.1,70.7z M93.3,67.4c-1.5,1.2-3,2.2-5.2,3.2c-2.2,0.9-4.6,1.4-6.6,1.4c-1.4,0-2.7-0.3-3.5-1.1
				c-0.8-0.8-1-1.8-1-2.8c0-0.6,0.1-1.6,0.4-2.5c0.2-0.6,0.7-2.3,1.6-3.7c1.7-2.9,3.9-5.6,6.9-7.4c1.3-0.8,2.7-1,3.9-1.1
				c0.8,0,1.5,0.2,2.1,0.8c0.3,0.4,0.4,0.6,0.4,1.2c0,0.2-0.1,0.7-0.3,0.9c-0.2,0.5-0.4,0.7-0.5,0.9c-0.2,0.4,0.1,1.3,0.2,1.6
				c0.1,0,0.1,0,0.2,0c0.3,0,1-1.3,1.9-2.9c0.8-1.6,2-4.6,2-4.9c0-0.1-0.1-0.5-0.4-0.5c-0.2,0-0.4,0.4-0.5,0.5
				c-0.2,0.3-1.1,2.1-1.6,2.8c-0.1,0.2-0.2,0.2-0.3,0.2c-0.3,0-0.4-0.5-0.5-1.1c-0.1-0.9-1-1.8-2.5-1.8h0c-2.7,0-5.7,1.2-7.8,3.2
				c-2,1.8-3.4,3.4-4.7,6c-1.1,2.2-1.7,4.6-1.7,6.9c0,2.9,0.7,3.8,1,4.3c0.3,0.5,0.9,1.3,2,1.8c0.9,0.4,1.9,0.6,2.7,0.6
				c0.9,0,2-0.2,2.7-0.4c0.8-0.2,1.8-0.5,2.2-0.6c0.4-0.1,1-0.4,1.7-0.7c0.9-0.4,1.8-1,2.5-1.5c0.7-0.5,2.3-1.9,2.5-2.1
				c0.5-0.5,0.7-0.7,0.8-0.9C93.7,67.5,93.6,67.4,93.3,67.4z M125.7,70.4c-1.1,1.3-2.5,1.8-3.4,1.8c-0.8,0-1.2-0.7-1.4-1.2
				c-0.2-0.5-0.2-1.1-0.2-1.6c0-0.9,0.1-1.5,0.3-2.3c0.5-2.3,0.9-3,1.5-4.2c0.5-1.2,1.7-2.5,1.8-2.6c0.2-0.2,0.4-0.3,0.4-0.5
				c0-0.5-0.1-0.8-0.2-1c-0.2-0.2-0.3-0.2-0.3-0.2c-0.4,0-0.6,0-1,0.5c-0.5,0.6-0.8,1.2-1.6,2.9c-0.2,0.5-0.7,1.4-0.7,1.4
				c-1.3,1.9-2.7,3.7-3.7,4.8c-0.7,0.7-2.8,2.9-4,2.9c-0.3,0-0.6-0.2-0.6-0.6c0-0.3,0.2-1,0.7-1.7c0.3-0.6,1.6-2.3,2-2.7
				c0.4-0.4,1.3-1.5,1.7-1.9c0.7-0.7,2.4-2.4,2.9-2.8c0.5-0.4,1-0.6,1.5-0.6c0.2,0,0.5,0,0.5-0.2c0-0.1-0.1-0.2-0.2-0.2
				c-0.5-0.3-1.3-0.5-1.8-0.5c-0.8,0-1.7,0.4-2.1,0.7c-0.3,0.2-1.2,0.9-2.1,1.9c-1.1,1.2-2.3,3.2-3.2,5.2c-0.5,1.2-1,2.7-1,3.9
				c0,1.1,0.5,1.8,1.3,1.8c0.3,0,0.6-0.1,0.8-0.2c0.4-0.2,0.8-0.4,1.2-0.7c0.4-0.3,1-0.8,1.3-1.2c0.3-0.3,1.4-1.6,1.9-2.3
				c0.2-0.3,0.8-1,1.1-1.4c0.2-0.3,0.5-0.6,0.5-0.6s0.2,0.1,0.2,0.2c0,0.2-0.1,0.5-0.1,0.7c0,0.3-0.3,1.2-0.4,1.7
				c-0.1,0.6-0.2,1.4-0.1,2.1c0.1,0.9,0.6,2.2,2.1,2.2h0c1.6,0,3.6-1.6,4.7-3C125.9,70.5,125.8,70.5,125.7,70.4z M130.6,68.5
				c0.3-0.4,1.1-1.2,1.6-1.7c0.4-0.5,1.1-1.1,1.4-1.4c0.2-0.3,0.3-0.3,0.5-0.5c0.2-0.2,0.3-0.2,0.4-0.2c0.3,0,0.4,0.3,0.4,0.5
				c0,0.4-0.3,1.6-0.4,2.1c-0.1,0.7-0.2,1.8-0.3,2.4c0,0.6,0,2,0.2,2.8c0.2,0.7,0.8,1.2,1.6,1.3c0.9,0,1.7-0.4,2.2-0.7
				c0.3-0.2,1.2-0.8,1.8-1.4c0.6-0.6,1-1,1.2-1.5c0-0.1,0-0.3-0.1-0.3c-0.1,0-0.2,0.2-0.3,0.3c-0.6,0.7-1.9,1.8-3.4,1.8
				c-0.4,0-0.7-0.1-0.8-0.3c-0.1-0.1-0.4-0.5-0.6-1c-0.1-0.5-0.3-1.5-0.3-2.1c0-0.9,0-1.5,0.2-2.5c0,0,0.2-1.3,0.5-2.3
				c0.3-1,0.7-2,0.8-2.4c0.2-0.3,0.3-0.6,0.5-0.8c0.1-0.2,0.3-0.5,0.4-0.7c-0.1-0.3-0.2-0.3-0.5-0.3c-0.2,0-1,0.1-1.2,0.3
				c-0.5,0.7-1.6,2.3-2.2,3.1c-0.6,0.8-3.7,4.4-4.1,4.7c-0.4,0.4-0.5,0.4-0.6,0.4c-0.2,0-0.2-0.1-0.2-0.2c0-0.1,0-0.1,0-0.2
				c0.2-0.2,0.7-1.2,1.1-2.1c0.5-0.9,0.9-2.4,1.1-3.4c0.1-0.6,0-1.6-0.2-2.1c-0.1-0.3-0.4-0.7-0.9-0.7c-0.6,0-1.3,0.5-1.7,0.8
				c-0.5,0.4-1.6,1.5-2,2.1c0,0.2,0.1,0.2,0.2,0.2c0.4-0.3,1.2-1,1.9-1c0.7,0,0.9,0.7,0.9,1.3c0,0.5-0.1,1.5-0.5,2.8
				c-0.9,3-2.5,5.5-3.6,7.2c0,0.1,0,0.2,0.1,0.2c0.2,0.3,0.7,0.5,1.1,0.5h0.2c0-0.1,0.5-1,0.9-1.5c0.3-0.5,0.9-1.4,1.4-2
				C129.8,69.5,130.3,68.9,130.6,68.5z M167.3,61.2l-5.4,1.6c-0.2,0-0.3,0-0.3-0.1c0-0.1,0.1-0.2,0.2-0.3c0.4-0.5,0.9-1.3,0.9-2
				c0.1-0.6-0.2-1.1-0.5-1.4c-0.3-0.3-0.9-0.3-1.2-0.2c-0.3,0-0.8,0.1-2,1.1c-1.2,1-2,2.2-2.3,2.6c-0.3,0.5-0.4,0.8-0.7,1.2
				c-0.3,0.4-0.6,0.9-1.1,1.1c-0.4,0.2-0.8,0.3-0.9,0.5c-0.3,0.4-0.2,0.5-0.3,1l1.2-0.4c-0.3,0.9-0.8,2-0.8,3.9
				c0,0.9,0.2,2.3,1.1,3.2c0.5,0.5,1.2,1.1,2.1,1c1-0.1,2.4-0.6,3.5-1.4c1-0.7,2-1.8,3.1-3.5c0-0.4-0.1-0.4-0.3-0.3
				c-0.1,0.1-0.6,0.8-1.6,1.6c-1,0.8-3.4,2.1-5,2.1h0c-1.1,0-1.4-0.6-1.4-1.4c0-1.2,0.8-3.5,1.1-4.1c0.5-1.2,0.8-1.6,1.5-1.9
				c0.6-0.2,0.9-0.4,1.4-0.5c0.9-0.3,2.2-0.8,3.5-1.2c1.3-0.5,3.1-1.2,3.7-1.3c0.5-0.1,0.7-0.4,0.8-0.5c0-0.1,0-0.2,0-0.2
				C167.5,61.2,167.4,61.2,167.3,61.2z M158.5,63.8c-0.3,0.1-0.4,0-0.4,0c0.5-1,0.8-1.5,1.4-2.5c0.3-0.5,0.8-1.2,1-1.3
				c0.1-0.2,0.4-0.3,0.5-0.3h0c0.4,0,0.5,0.2,0.5,0.7c0,0.3,0,1.1-0.5,1.8C160.4,63.1,159.1,63.7,158.5,63.8z M150.2,71.9
				c-0.5,0-1.8,0.1-2.2,0.2c-0.4,0.1-0.8,0.2-1.1,0.2c-0.2-0.1-0.3-0.4-0.5-0.6c-0.4-0.9-0.5-1.1-0.6-1.6c0-0.2,0.8-0.8,1-1.1
				c0.2-0.3,0.9-1.2,1.2-1.7c0.4-0.7,0.9-1.9,1.1-2.4c0.1-0.3,0.4-1.3,0.5-1.6c0.1-0.3,0.3-0.6,0.7-0.7c0.3-0.1,0.5-0.1,1.1-0.2
				c0.6-0.1,2-0.4,2.6-0.6c0.6-0.2,0.7-0.4,0.9-0.5c0-0.2,0-0.3,0-0.3c-0.6,0.2-1.1,0.3-2.1,0.4c-0.8,0-1.7,0.1-2.7,0.1
				c0.1-0.3,0.1-0.7,0.1-1c0-0.3-0.1-0.7-0.3-1.1c-0.2-0.3-0.5-0.6-1.1-0.6h0c-0.8,0-1.4,0.3-2.1,0.9c-1,0.8-3,3.2-3.2,4.4
				c0,0.4-0.1,1.4-0.1,1.8c0,0.2-0.6,1.4-0.8,1.8c-0.2,0.4-0.4,1.1-0.4,1.8c0,1.1,0.6,2,1.8,1.7c0.5-0.1,0.7-0.2,0.8-0.3
				c0.2,0,0.3,0.1,0.4,0.3c0.2,0.3,0.7,1.3,0.6,1.4c-0.5,0.2-1.4,0.4-2.1,0.7c-1.6,0.5-3.9,1.3-6.4,2.6c-2.7,1.4-8.4,4.7-8.4,9.1
				c0,0.7,0.2,1.5,0.6,2.3c1,1.9,3,2.5,4.2,2.8c1.2,0.3,3.1,0.6,5.4,0.4c1.7-0.1,3-0.5,4-0.8c1-0.3,1.7-0.6,2.5-1.1
				c1-0.5,2.1-1.3,3-2.1c0.9-0.8,2.3-2.4,2.3-5.3c0-0.8-0.1-1.7-0.5-2.6c-0.5-1.4-1-2.1-2.5-4.3c-0.2-0.3-0.5-0.7-0.5-0.9
				c0-0.1,0.3-0.2,0.5-0.3c0.2-0.1,1.1-0.3,1.5-0.3c0.4-0.1,1.1-0.1,2.1-0.1c0.2,0,0.6,0.2,0.8,0.2c0,0,0-0.1,0-0.2
				C152.2,72.3,151.6,71.9,150.2,71.9z M143.9,70.1c-0.4,0-0.9-0.2-0.9-0.7c0-0.6,0.8-1.5,0.9-1.5c0.1,0,0.2,0,0.2,0
				c0.2,0.5,0.5,1.1,0.5,1.8C144.6,69.9,144.4,70.1,143.9,70.1z M145.4,69.3c-0.2-0.7-0.4-1.2-0.4-2c0-0.6,0-1.4,0.5-2.3
				c0.9-1.6,1.3-2.4,2-3.7c0.4-0.8,0.9-1.2,1.2-1.2h0c0.4,0,0.6,0.3,0.6,0.6c0,0.3,0,0.6,0,0.7c-0.4,0-0.8,0-1,0.1
				c-0.1,0.2-0.1,0.3-0.2,0.5c0,0.2,0.1,0.7,0.2,1c0,0.1,0,0.2,0,0.3c0,0.8-0.3,1.6-0.7,2.3c-0.8,1.6-1.9,3.2-2.3,3.6
				C145.5,69.4,145.4,69.3,145.4,69.3z M149.6,80.4c0,2.7-2.1,4.5-3.7,5.5c-0.7,0.3-2.1,1.2-4.6,2c-0.8,0.2-3.4,0.7-5.1,0.7
				c-1.6,0-3.6-0.2-5.1-1.4c-1-0.8-1.2-1.6-1.2-2.3c0-0.5,0.2-1.2,0.5-2c0.4-0.8,1.9-2.2,2.6-2.8c0.8-0.6,1.8-1.2,3.5-2.2
				c1.8-1,2.4-1.3,4-2c1.6-0.7,5-2.1,5.3-2.2c0.4-0.1,0.6-0.1,1,0.2C148.4,76.3,149.6,78.4,149.6,80.4z"/>
		</g>
	</g>
	<g>
		<path fill="#20B6EA" d="M36.5,47.8c0-2.9,0.8-6.5,1.9-9.1c0.1-0.1,0.1-0.2,0.2-0.4c-5,3.4-8.3,9-8.4,15.5c0-0.1,0.1-0.1,0.1-0.2
			C31.6,51.7,34.3,49.5,36.5,47.8z"/>
		
			<radialGradient id="SVGID_1_" cx="-125.6572" cy="45.6895" r="34.1071" gradientTransform="matrix(0.9783 0 0 0.9785 162.4279 0.9891)" gradientUnits="userSpaceOnUse">
			<stop  offset="0.5" style="stop-color:#20B6EA"/>
			<stop  offset="0.9" style="stop-color:#0079C1"/>
		</radialGradient>
		<path fill="url(#SVGID_1_)" d="M51.1,35.4c-2.4,0.3-7.3,3.6-8.2,9.4c5.8-3,12.8-4.9,18.6-5.2c0.1,0,0.2,0,0.2,0
			c-2.8-2.4-6.2-3.9-10-4.4c0.1,0,0.3,0,0.4,0.1C51.7,35.3,51.3,35.3,51.1,35.4z"/>
		
			<radialGradient id="SVGID_2_" cx="-125.6593" cy="45.6896" r="34.1193" gradientTransform="matrix(0.9783 0 0 0.9785 162.4279 0.9891)" gradientUnits="userSpaceOnUse">
			<stop  offset="0.5" style="stop-color:#20B6EA"/>
			<stop  offset="0.9" style="stop-color:#0079C1"/>
		</radialGradient>
		<path fill="url(#SVGID_2_)" d="M43.5,51.8c1.3,7.8,9.6,15.9,16.9,18.1c-0.8,0.5-1.7,1.1-2.6,1.5c6.3-3.1,10.7-9.7,10.7-17.2
			c0-1-0.1-1.9-0.2-2.9C63,48.1,51.2,47.6,43.5,51.8z"/>
		
			<radialGradient id="SVGID_3_" cx="-125.6503" cy="45.6868" r="34.1304" gradientTransform="matrix(0.9783 0 0 0.9785 162.4279 0.9891)" gradientUnits="userSpaceOnUse">
			<stop  offset="0.5" style="stop-color:#20B6EA"/>
			<stop  offset="0.9" style="stop-color:#0079C1"/>
		</radialGradient>
		<path fill="url(#SVGID_3_)" d="M32.5,63.4c2.8,5.2,8,8.9,14,9.8c-4-5.4-7.4-11.8-8.7-18.2C34.5,57.1,32.3,60.6,32.5,63.4z"/>
		<path fill="#0079C1" d="M37.8,55c-0.2-0.7-0.3-1.4-0.4-2.2c-2.3,1.6-5,3.7-6.4,6.6c0,0,0,0,0,0.1c0,0,0,0.1,0,0.1
			c0.1,0.4,0.3,0.9,0.5,1.5c0.3,0.7,0.6,1.4,0.9,2c0.1,0.2,0.2,0.3,0.2,0.3C32.3,60.6,34.5,57.1,37.8,55z"/>
		<path fill="#0079C1" d="M43.5,51.8c7.6-4.2,19.5-3.7,24.8-0.5c0,0,0,0,0,0c0,0,0,0,0-0.1c-0.3-1.6-0.7-3.1-1.3-4.6
			c-0.1-0.1-0.1-0.3-0.2-0.4c-0.2-0.4-0.4-0.9-0.6-1.3c0,0-0.1,0-0.2,0c-8-0.7-18.3,1.6-24.9,5.4c0.9,7.9,7.3,16,14.3,22.1
			c0,0,0,0,0.1,0c0.3-0.1,0.5-0.2,0.8-0.3c0.5-0.2,1-0.5,1.5-0.7c0.8-0.5,1.8-1,2.6-1.5C53.1,67.7,44.9,59.7,43.5,51.8z"/>
		<path fill="#0079C1" d="M43.9,37.8c-1.3,1.8-2.4,4.2-2.7,6.8c0,0.4-0.1,0.8-0.1,1.3c0.6-0.4,1.3-0.7,1.9-1
			c0.8-5.7,5.8-9.1,8.2-9.4c0.2,0,0.6-0.1,1-0.1c-0.1,0-0.2,0-0.4-0.1c-0.3,0-1.4-0.2-2.5-0.2c-1.1,0-2.1,0.1-2.9,0.2
			c0,0-0.1,0-0.1,0.1C45.5,35.8,44.7,36.7,43.9,37.8z"/>
		<path fill="#FFFFFF" d="M41.2,50.3c6.6-3.8,16.9-6.1,24.9-5.4c0.1,0,0.1,0,0.2,0c-1.1-2.1-2.6-3.9-4.4-5.4c-0.1,0-0.2,0-0.2,0
			c-5.8,0.3-12.8,2.1-18.6,5.2c-0.6,0.3-1.3,0.7-1.9,1c0-0.4,0-0.8,0.1-1.3c0.3-2.6,1.4-5,2.7-6.8c0.8-1.1,1.6-1.9,2.4-2.5
			c0,0,0.1,0,0.1-0.1c-2.5,0.4-4.9,1.3-7,2.6c-0.3,0.2-0.5,0.3-0.8,0.5c0,0,0,0.1,0,0.1c-0.1,0.1-0.1,0.2-0.2,0.4
			c-1.1,2.7-1.9,6.3-1.9,9.1c-2.3,1.7-4.9,3.9-6.2,5.8c0,0.1-0.1,0.1-0.1,0.2c0,0.1,0,0.4,0,0.9c0,0,0,0,0,0c0,0.5,0,1.2,0.1,1.7
			c0,0.2,0.1,0.5,0.1,0.7c0,0.2,0.1,0.5,0.1,0.7c0.1,0.4,0.2,0.8,0.3,1.2c0.1,0.2,0.1,0.4,0.2,0.5c0,0,0,0,0-0.1
			c1.4-2.9,4.1-5,6.4-6.6c0.1,0.7,0.2,1.4,0.4,2.2c1.4,6.4,4.8,12.8,8.7,18.2c0.9,0.1,1.9,0.2,2.9,0.2c2.1,0,4.2-0.4,6.1-1
			C48.5,66.3,42.1,58.3,41.2,50.3z"/>
	</g>
	<g>
		<path fill="#0079C1" d="M168.4,69c1.2,0,2.2,0.9,2.2,2.1c0,1.2-0.9,2.1-2.2,2.1c-1.2,0-2.2-0.9-2.2-2.1
			C166.2,70,167.1,69,168.4,69L168.4,69z M168.4,69.5c-0.9,0-1.6,0.8-1.6,1.7c0,0.9,0.7,1.7,1.7,1.7c0.9,0,1.6-0.8,1.6-1.7
			C170,70.2,169.3,69.5,168.4,69.5L168.4,69.5z M168,72.3h-0.5v-2.1c0.2,0,0.5-0.1,0.8-0.1c0.4,0,0.6,0.1,0.7,0.2
			c0.1,0.1,0.2,0.3,0.2,0.5c0,0.2-0.2,0.4-0.4,0.5v0c0.2,0.1,0.3,0.2,0.4,0.5c0.1,0.3,0.1,0.5,0.2,0.5h-0.5
			c-0.1-0.1-0.1-0.3-0.2-0.5c0-0.2-0.2-0.3-0.4-0.3H168V72.3z M168,71.1h0.2c0.3,0,0.5-0.1,0.5-0.3c0-0.2-0.1-0.3-0.5-0.3
			c-0.1,0-0.2,0-0.3,0V71.1z"/>
	</g>
</g>
<line fill="none" stroke="#000000" x1="194" y1="25" x2="194" y2="88"/>
<g>
	<path d="M236.6,59.2v3.4c0.8,0.4,2.6,0.9,4.7,0.9c3.3,0,5.5-1.5,5.5-4.3c0-2.1-1.3-2.9-4-3.7l-4.6-1.3c-3-0.9-5.6-2.6-5.6-6.7
		c0-5.1,4.3-7.6,9.8-7.6c3.4,0,5.9,0.7,7.9,1.3V47h-3.9v-3.1c-0.6-0.2-1.9-0.6-3.9-0.6c-3.9,0-5.4,1.7-5.4,3.7c0,2.3,1.7,3,4,3.6
		l4,1c3,0.8,6.3,2.4,6.3,7c0,5.2-3.8,8.2-10,8.2c-1.9,0-6.5-0.5-8.7-1.4v-6.3H236.6z"/>
	<path d="M254.3,47.1h2.9l0.1-4.3l4.2-0.3l-0.1,4.6h5.5v3h-5.5c0,3.1-0.1,6.1-0.1,9c0,3.5,0.8,4.4,2.7,4.4c1.1,0,2.3-0.4,3.2-0.7
		l-0.1,3c-1,0.5-2.6,1-4.3,1c-4.1,0-5.7-1.6-5.7-5.9c0-2.5,0.1-7.4,0.1-10.7h-2.9V47.1z"/>
	<path d="M268.2,47.1h6.7c-0.1,3.8-0.1,7.7-0.1,11.5c0,2.7,1.3,4.7,3.8,4.7c2.7,0,4.9-2.3,5-5.9l0.1-7.3H281v-3h6.7l-0.1,16.2h2.6v3
		h-6.7c0-1.3,0.1-2.6,0.4-4.3h-0.1c-0.8,2.9-3.7,4.7-6.7,4.7c-4.1,0-6.5-2.9-6.5-7.4c0-3.2,0-6.2,0.1-9.3h-2.6V47.1z"/>
	<path d="M313.6,66.4h-6.5c0-1.4,0.2-2.8,0.4-3.9h-0.1c-1,2.6-3.1,4.4-6.4,4.4c-4.6,0-8-3.4-8-9.2c0-6.4,3.8-11,10.3-11
		c1.4,0,2.7,0.2,3.8,0.4l0.1-6.2h-3.5v-3h7.5L311,63.3h2.6V66.4z M306.9,50.7c-0.9-0.5-2.2-0.8-3.7-0.8c-3.8,0-6,3.3-6,7.1
		c0,3.6,1.6,6.3,4.7,6.3c3.3,0,5-2.7,5-7.2V50.7z"/>
	<path d="M333.2,65.5c-1.3,0.6-3.9,1.3-6.8,1.3c-6.4,0-10.2-4-10.2-10c0-5.7,3.2-10.2,9.5-10.2c5.8,0,8.7,4.2,8.7,10.2v0.6h-13.8
		c0,3.7,2.8,6.2,6.6,6.2c2.4,0,4.5-0.6,6.2-1.5L333.2,65.5z M330,54.6v-0.4c0-1.6-1-4.5-4.6-4.5c-3.5,0-4.7,2.6-4.9,4.9H330z"/>
	<path d="M337.3,63.3h2.2l0.1-13.2h-2.7v-3h6.9c0,1.3-0.1,2.6-0.4,4.3h0.1c0.8-2.5,2.9-4.7,6.8-4.7c4.5,0,6.7,2.9,6.7,7.5
		c0,3.1-0.1,6.2-0.1,9.2h2.5v3h-8.9v-3h2.2c0-2.8,0.1-5.7,0.1-8.5c0-2.7-1.3-4.7-3.9-4.7c-2.9,0-5,2.3-5.1,5.9l-0.1,7.3h2.6v3h-8.9
		V63.3z"/>
	<path d="M361.3,47.1h2.9l0.1-4.3l4.2-0.3l-0.1,4.6h5.5v3h-5.5c0,3.1-0.1,6.1-0.1,9c0,3.5,0.8,4.4,2.7,4.4c1.1,0,2.3-0.4,3.2-0.7
		l-0.1,3c-1,0.5-2.6,1-4.3,1c-4.1,0-5.7-1.6-5.7-5.9c0-2.5,0.1-7.4,0.1-10.7h-2.9V47.1z"/>
	<path d="M386.8,52.6l-0.1-2.3c-0.6-0.3-1.5-0.6-3.2-0.6c-1.9,0-3.9,0.4-3.9,2.3c0,1.5,1.3,1.9,2.4,2.1l4.7,0.9
		c2.2,0.4,4.7,1.4,4.7,5.3c0,5.1-4.4,6.4-8.6,6.4c-3.3,0-5.8-0.7-7-1.1l-0.1-5.2h3.7l0.1,2.6c0.7,0.2,2,0.8,4.1,0.8
		c2,0,3.9-0.7,3.9-2.7c0-1.6-1.2-2.2-2.8-2.4l-3.1-0.6c-3-0.6-6.2-1.7-6.2-5.3c0-4.5,4-6.1,8.2-6.1c3.2,0,5.6,0.9,6.7,1.3l0.1,4.7
		H386.8z"/>
</g>
</svg>
