<?xml version="1.0" encoding="utf-8"?>
<!-- Generator: Adobe Illustrator 13.0.0, SVG Export Plug-In . SVG Version: 6.00 Build 14948)  -->
<!DOCTYPE svg PUBLIC "-//W3C//DTD SVG 1.1//EN" "http://www.w3.org/Graphics/SVG/1.1/DTD/svg11.dtd">
<svg version="1.1" id="Logo" xmlns="http://www.w3.org/2000/svg" xmlns:xlink="http://www.w3.org/1999/xlink" x="0px" y="0px"
	 viewBox="0 0 710.772 215.803" enable-background="new 0 0 710.772 215.803"
	 xml:space="preserve">
<g id="CRAVINGS">
	<path d="M212.119,118.233c-6.891,0-12.75-2.41-17.574-7.237c-4.825-4.823-7.237-10.655-7.237-17.491V36.931
		c0-6.89,2.426-12.75,7.278-17.573c4.852-4.824,10.696-7.237,17.532-7.237c6.893,0,12.737,2.426,17.536,7.278
		c4.262,4.551,5.206,6.774,6.067,9.673l-14.205,7.076c-0.54-2.224-1.759-4.151-3.525-5.914c-1.763-1.766-3.885-2.647-6.369-2.647
		c-2.479,0-4.59,0.881-6.326,2.647c-1.736,1.763-2.604,3.885-2.604,6.369v56.735c0,2.483,0.869,4.59,2.604,6.328
		c1.736,1.737,3.846,2.606,6.326,2.606c2.483,0,4.606-0.869,6.369-2.606c1.766-1.738,2.566-3.339,3.525-5.933l14.152,7.547
		c-0.826,2.799-1.245,4.963-6.097,9.758C224.72,115.836,218.901,118.233,212.119,118.233z"/>
	<path d="M268.75,13.276c8.714,0,15.108,2.401,19.189,7.196c3.582,4.192,5.376,10.036,5.376,17.536v15.052
		c0,7.333-2.787,13.537-8.353,18.61l11.578,45.24h-16.907l-9.479-39.039c-0.442,0-0.91,0-1.405,0h-9.016v39.039h-15.631V13.276
		H268.75z M278.096,38.254c0-6.008-2.976-9.016-8.932-9.016h-9.43v33.167h9.43c2.48,0,4.59-0.881,6.329-2.647
		c1.737-1.763,2.603-3.886,2.603-6.369V38.254z"/>
	<path d="M323.946,93.091l-3.797,23.819h-16.278l17.621-103.634h21.5L360.36,116.91h-16.437l-3.654-23.819H323.946z M332.16,37.013
		l-5.791,40.858h11.578L332.16,37.013z"/>
	<path d="M375.745,116.91L357.22,13.276h16.386l13.005,80.781l13.104-80.781h16.392L397.25,116.91H375.745z"/>
	<path d="M442.826,116.91h-15.631V13.276h15.631V116.91z"/>
	<path d="M474.353,13.194l20.745,69.703V13.194h15.631V116.91h-16.787l-21.507-66.415v66.415h-15.631V13.194H474.353z"/>
	<path d="M545.892,118.233c-6.894,0-12.75-2.426-17.574-7.278c-4.826-4.853-7.237-10.668-7.237-17.45V36.931
		c0-6.89,2.427-12.75,7.278-17.573c4.853-4.824,10.696-7.237,17.533-7.237c6.893,0,12.736,2.426,17.535,7.278
		c3.44,3.456,4.451,5.781,5.968,9.673l-14.86,6.874c-0.151-1.567-1.005-3.949-2.771-5.711c-1.763-1.766-3.886-2.647-6.368-2.647
		c-2.48,0-4.59,0.881-6.328,2.647c-1.734,1.763-2.603,3.885-2.603,6.369v56.735c0,2.483,0.868,4.59,2.603,6.328
		c1.738,1.737,3.848,2.606,6.328,2.606c2.482,0,4.605-0.866,6.368-2.597c1.766-1.734,2.647-3.838,2.647-6.312V72.994h-8.685V57.278
		h24.896v36.227c0,6.893-2.426,12.737-7.278,17.532C558.493,115.836,552.674,118.233,545.892,118.233z"/>
	<path d="M628.714,91.104c0.107,7.224-1.766,13.4-5.626,18.527c-2.536,3.475-6.119,5.93-10.75,7.363
		c-2.483,0.771-5.377,1.156-8.685,1.156c-6.122,0-11.195-1.517-15.22-4.549c-3.364-2.483-7.061-8.109-7.979-10.131
		c-0.319-0.733-0.572-1.138-0.849-2.427l13.817-7.278c0.688,3.134,1.521,4.827,3.281,7.083c1.876,2.05,4.024,3.02,6.454,2.909
		c3.418-0.11,6.147-1.794,8.188-5.051c1.046-1.598,1.57-3.889,1.57-6.868c0-4.305-1.959-8.582-5.873-12.831
		c-3.089-2.925-7.721-7.313-13.893-13.164c-5.185-5.02-8.852-9.518-11.003-13.492c-2.315-4.47-3.472-9.329-3.472-14.572
		c0-9.436,3.168-16.582,9.512-21.44c3.914-2.925,8.766-4.388,14.557-4.388c5.569,0,10.336,1.242,14.307,3.725
		c3.087,1.93,5.582,4.631,7.487,8.103c1.517,3.32,1.466,3.624,1.917,5.292l-13.613,6.874c-0.485-1.769-1.496-4.994-3.483-7.367
		c-1.434-1.709-3.5-2.565-6.2-2.565c-2.869,0-5.046,1.27-6.536,3.807c-1.213,2.041-1.82,4.578-1.82,7.607
		c0,4.745,2.041,9.569,6.123,14.475c1.541,1.876,3.856,4.082,6.946,6.618c3.639,3.033,6.037,5.156,7.196,6.369
		c3.857,3.86,6.836,7.664,8.931,11.414c0.995,1.766,1.791,3.39,2.4,4.88C627.887,84.875,628.658,88.183,628.714,91.104z"/>
</g>
<g id="Y">
	<path stroke="#000000" stroke-width="2" d="M175.038,22.698c-0.891,2.784-1.383,4.519-1.466,5.37c0,0-6.188,28.072-6.645,36.701
		c0.091,2.516-0.049,5.347-0.226,11.453l0.12,1.166c0.118,1.606,0.059,6.113,0.158,9.357c0.095,3.197,0.586,5.392,0.724,6.725
		l0.11,2.679c2.182,30.915,0.052,56.581-3.064,77.908c-0.765,4.186-1.727,6.614-3.139,10.453c-1.39,3.882-2.554,6.176-3.417,7.556
		c-0.283,0.534-4.475,7.196-7.364,10.188c-3.935,4.277-10.339,9.284-14.272,10.582c-4.418,1.453-11.025,1.956-11.025,1.956
		c-0.499,0.054-3.225-0.11-3.682-0.164c-3.124-0.367-3.323-0.363-4.661-0.557c-2.154-0.307-5.106-0.995-5.595-1.118
		c-3.051-0.752-8.697-2.214-15.828-7.708c-6.598-5.209-11.516-12.131-13.669-15.716c-5.972-11.755-5.931-21.169-6.045-25.357
		c-0.17-6.258,3.105-16.02,6.086-23.083c1.472-3.487,4.26-5.396,4.67-6.277c-1.08,2.325-2.442,5.75-3.152,8.18
		c-0.766,2.605-0.869,2.608-1.5,5.401c-0.818,3.604-0.758,2.812-1.416,6.567c-0.806,4.594-1.103,12.128-0.361,16.418
		c0.978,5.67,4.962,14.411,7.673,17.832c10.604,13.044,20.929,17.849,31.475,17.959c3.055,0.035,9.632,0.092,12.393-0.606
		c3.841-0.976,6.364-1.867,10.717-5.345c4.354-3.481,7.251-7.923,8.417-9.721c9.734-15.043,10.349-31.906,10.004-61.322
		c-0.161-3.185-0.161-8.065-0.313-14.446c-0.052-0.499-0.264-10.611-0.384-11.776c0,0,0.001-3.33-1.129-12.639
		c-1.275,2.321-3.563,6.648-6.335,13.614c-0.572,1.435-1.104,3.983-3.653,8.624c-2.403,4.454-3.614,6.757-4.843,6.896
		c-0.853,0.095-1.785-0.184-2.286-0.133l-3.944,0.101c-1.166,0.124-1.994-0.594-3.475-2.669c-2.475-3.475-3.368-6.552-3.592-8.719
		l-3.421-33.137c-0.461-2.815-1.248-3.911-0.688-11.543c0.477-1.899,2.919-4.339,7.357-6.985c2.619,0.907,4.106,2.268,4.294,4.101
		c0.052,0.499-0.292,2.05-0.886,4.467c-0.872,2.95-1.201,4.667-1.183,4.833c-0.345,1.551-0.586,4.101-0.425,7.282
		c0.158,3.181,0.417,10.561,0.607,12.391c0.189,1.833,0.262,4.18,0.388,7.03c0,0,0.051,0.499,0.72,6.994
		c0.149,1.737,0.25,3.576,0.917,4.495c0.308,0.427,1.971,2.275,1.971,2.275c1.448-0.654,2.792-2.307,4.015-5.128
		c9.796-20.869,14.536-38.526,14.557-53.002c0.059-7.58,0.651-14.877,2.11-21.928c2.167-9.985,5.413-16.044,9.886-18.357
		c3.123,2.539,4.776,3.882,4.829,4.383C176.273,18.362,175.964,20.247,175.038,22.698z"/>
</g>
<g id="M">
	<path d="M118.275,101.096c-9.354,11.433-20.642,19.302-26.398,19.75c-4.781,0-8.419-2.805-10.187-8.522
		c-1.265-4.095-2.484-16.629-2.494-18.085c-0.014-2.23,1.529-4.811-1.455-5.613c-1.965-0.527-2.66,2.921-3.988,5.407
		c-1.699,3.178-4.786,9.02-8.276,14.131c-2.251,3.298-4.508,6.564-7.69,8.939c-4.604,3.434-11.641,7.483-14.344,7.275
		c-4.005-0.31-6.432-4.783-7.482-7.483c-2.674-6.868-4.157-16.835-4.157-30.14c0-3.535,1.05-7.405-1.041-8.523
		c-1.737-0.929-5.219,6.849-9.976,18.293c-3.971,9.553-3.761,19.153-8.106,21.617c-0.746,0.424-4.96,1.918-7.899,1.874
		C-0.071,119.942,0.036,95.47,0,92.573c-0.098-8.34,11.224-58.823,11.224-58.823s7.068,4.779,7.068,8.314
		c0,1.456-0.416,3.532-1.248,6.441c-0.831,2.913-2.924,10.741-3.949,15.593c-0.693,3.279-2.63,13.545-2.702,14.133
		c-0.512,4.127-0.772,10.657,2.287,10.393c0.654-0.055,2.207-3.339,4.988-8.52c3.563-6.64,6.318-13.571,9.563-20.373
		c5.004-10.488,9.354-15.589,12.887-15.589c4.364,0,6.444,5.612,6.444,16.836c0,2.911-0.197,7.277-0.833,13.096
		c-0.613,5.613-0.831,9.979-0.831,12.889c0,6.026-1.657,13.933,1.248,22.864c0.375,1.153,1.662,1.457,3.118,1.457
		c0.415,0,2.252-1.432,4.157-4.992c1.833-3.424,14.675-36.757,28.892-46.768c1.202-0.847,4.781-3.118,6.444-3.118
		c1.455,0,2.658,1.477,4.157,4.366c1.414,2.723,1.542,3.927,0.991,7.24c-0.664,3.978-4.317,24.147-4.317,25.809
		c0,5.822-1.215,14.297,4.157,16.629c4.95,2.145,11.9-5.766,19.747-13.512c9.627-9.495,15.612-18.583,18.708-17.045
		C134.63,81.1,127.631,89.664,118.275,101.096z"/>
</g>
<g>
	<path d="M666.706,105.611c0,1.824,0.092,4.014,2.555,4.014c2.099,0,2.646-1.003,2.646-4.014v-2.61l9,4.563
		c0,8.125-3.891,10.272-11.646,10.272c-6.66,0-11.769-3.649-11.769-14.779V81.252c0-11.13,5.108-14.779,11.769-14.779
		c7.755,0,11.604,2.653,11.604,10.028l-8.917,4.542l-0.041-2.345c0-3.011-0.547-4.014-2.646-4.014c-2.463,0-2.555,2.189-2.555,4.014
		V105.611z"/>
	<path d="M700.918,84.537c0-0.547,0-1.186,0-1.642c0-0.547,0-2.919,0-3.832c0-1.825,0-4.562-2.554-4.562
		c-2.875,0.083-2.708,5.5-2.708,5.5l-9.084,4.583c0,0-0.068-4.427-0.068-4.792c0-7.299,5.383-13.32,12.407-13.32
		c6.021,0,11.222,4.835,11.222,11.313v15.601c0,3.193,0,11.678,0,15.053c0,4.471,0.273,6.478,0.639,8.667c-8.759,0-9.032,0-9.032,0
		c-0.821-0.912-0.821-3.467-0.821-4.015h-0.639c-0.912,1.733-3.648,4.744-7.39,4.744c-2.463,0-7.39-1.824-7.39-12.316
		C685.5,88.642,700.006,87.547,700.918,84.537z M697.087,108.805c2.098,0,3.831-1.369,3.831-3.011V93.021
		c-4.47,1.916-6.386,6.386-6.386,11.13C694.533,105.338,694.806,108.805,697.087,108.805z"/>
</g>
<text transform="matrix(1 0 0 1 622.5698 117.1807)" font-family="'Didot'" font-size="140">.</text>
</svg>
