<?xml version="1.0" encoding="utf-8"?>
<!-- Generator: Adobe Illustrator 13.0.0, SVG Export Plug-In . SVG Version: 6.00 Build 14948)  -->
<!DOCTYPE svg PUBLIC "-//W3C//DTD SVG 1.1//EN" "http://www.w3.org/Graphics/SVG/1.1/DTD/svg11.dtd">
<svg version="1.1" id="Layer_1" xmlns="http://www.w3.org/2000/svg" xmlns:xlink="http://www.w3.org/1999/xlink" x="0px" y="0px"
	 viewBox="0 0 448 216" enable-background="new 0 0 448 216" xml:space="preserve">
<g>
	<defs>
		<rect id="SVGID_1_" width="448" height="216"/>
	</defs>
	<clipPath id="SVGID_2_">
		<use xlink:href="#SVGID_1_"  overflow="visible"/>
	</clipPath>
	<path clip-path="url(#SVGID_2_)" d="M126.807,97.234c-2.408,0-4.205,2.204-4.205,4.462c0,1.704,0.906,2.26,2.463,2.26
		c2.127,0,4.115-2.122,4.115-4.573C129.18,97.79,128.238,97.234,126.807,97.234 M125.465,103.4c-0.785,0-1.018-0.875-1.018-1.815
		c0-1.565,0.678-3.795,1.838-3.795c0.861,0,1.046,0.512,1.046,1.702C127.331,100.964,126.727,103.4,125.465,103.4 M121.033,95.833
		l-0.25-0.083c-0.644,0.375-1.215,0.75-1.832,1.261l-0.091,0.431l-1.262,0.151l-0.047,0.278l1.201,0.126l-0.724,3.631
		c-0.079,0.386-0.153,1.051-0.153,1.273c0,0.692,0.324,1.055,0.877,1.055c1.601,0,2.569-1.094,3.11-1.819l-0.308-0.259
		c-0.278,0.304-0.973,1.147-1.495,1.147c-0.447,0-0.478-0.319-0.478-0.665c0-0.207,0.047-0.567,0.173-1.177l0.629-3.186l1.848-0.126
		l0.045-0.278l-1.784-0.151C120.569,96.942,120.904,96.141,121.033,95.833 M86.806,81.128h-5.935v0.474l0.534,0.053
		c1.049,0.11,1.049,0.386,1.049,2.174v6.667c0,1.806,0,2.062-1.049,2.153l-0.534,0.056v0.474h6.405v-0.474l-0.85-0.056
		c-1.049-0.091-1.071-0.347-1.071-2.153v-8.547c0.358-0.075,0.717-0.128,1.095-0.128c1.874,0,3.414,0.877,3.414,2.795
		c0,2.209-1.45,2.792-3.101,2.974v0.694c2.343-0.054,6.003-0.84,6.003-3.926C92.766,81.528,89.55,81.128,86.806,81.128
		 M102.656,80.852c-4.285,0-8.01,2.339-8.01,6.539c0,4.071,3.504,6.062,7.787,6.062c4.305,0,8.031-2.337,8.031-6.538
		C110.464,82.845,106.963,80.852,102.656,80.852 M102.68,92.756c-3.438,0-4.777-2.793-4.777-5.804c0-2.903,1.407-5.404,4.51-5.404
		c3.456,0,4.795,2.794,4.795,5.806C107.208,90.258,105.802,92.756,102.68,92.756 M127.404,81.602l1.05,0.145
		c0.402,0.074,0.757,0.127,0.757,0.438c0,0.275-0.246,1.097-0.536,2.139l-1.964,5.878h-0.045l-3.949-8.8
		c-0.402,0.037-0.779,0.072-1.137,0.182l-3.328,8.583h-0.044l-2.473-7.049c-0.069-0.201-0.269-0.785-0.269-0.933
		c0-0.236,0.156-0.311,0.87-0.438l0.871-0.145v-0.474h-6.361v0.474l0.6,0.127c0.804,0.202,0.895,0.529,1.297,1.536l3.995,10.097
		c0.535-0.018,0.916-0.074,1.405-0.183l3.324-8.18h0.045l3.838,8.363c0.513-0.018,0.892-0.054,1.406-0.183l3.415-8.855
		c0.692-1.827,1.004-2.503,1.808-2.631l0.578-0.091v-0.474h-5.153V81.602z M141.772,92.284c-0.759,0-2.512,0.073-3.248-0.073v-4.876
		h1.605c1.855,0,2.188,0,2.344,0.805l0.111,0.584h0.581V85.09h-0.581l-0.111,0.637c-0.135,0.769-0.445,0.786-2.434,0.786h-1.515
		v-4.692h2.472c2.346,0,3.081,0.036,3.66,2.355l0.803-0.091c0-0.931,0-2.028-0.266-2.957h-11.162v0.474l0.538,0.053
		c1.048,0.202,1.048,0.11,1.048,2.174v6.647c0,2.062,0,2.008-1.048,2.173l-0.538,0.056v0.474h11.719
		c0.446-1.115,0.627-2.063,0.738-3.342l-0.804-0.128C145.238,91.079,145.119,92.284,141.772,92.284 M161.03,92.022
		c-1.527-1.731-3.348-3.855-3.681-4.476c1.27-0.472,2.358-1.638,2.358-3.246c0-2.867-2.469-3.172-4.52-3.172h-6.924v0.474
		l0.513,0.053c1.069,0.129,1.069,0.311,1.069,2.156v6.665c0,1.826,0,2.046-1.047,2.173l-0.535,0.056v0.474h6.071v-0.474
		l-0.539-0.056c-1.047-0.127-1.047-0.347-1.047-2.153v-2.54h0.715c1.406,0,1.823,0.675,2.603,1.901l0.849,1.35
		c0.489,0.805,1.484,1.972,3.735,1.972h2.151v-0.474C162.399,92.668,161.462,92.512,161.03,92.022 M153.842,87.262h-1.094v-5.313
		c0.38-0.092,0.759-0.128,1.159-0.128c1.788,0,3.396,0.949,3.396,2.628C157.303,85.235,156.988,87.262,153.842,87.262"/>
	<path clip-path="url(#SVGID_2_)" fill="#0079C1" d="M118.637,117.157c-0.453,0.393-0.661,0.531-0.996,0.709
		c-0.337,0.176-0.793,0.395-1.315,0.389c-1.836-0.021-2.143-2.855-2.21-3.424c-0.065-0.572-0.123-1.555-0.123-1.555
		c-0.081-1.324-0.081-2.533,0.162-4.789c0.126-1.166,0.29-1.868,0.491-2.571c-0.201-0.154-0.491-0.269-0.653-0.269
		c-0.612,0-1.266,0.701-1.598,1.203l-5.812,8.135c-0.453,0.309-0.489,0.236-0.453-0.154c0,0,1.56-4.227,1.887-5.135
		c0.33-0.909,1.317-3.447,1.598-4.167c0.283-0.723,0.86-2.197,1.597-4.036c0.735-1.841,1.372-3.456,2.054-4.644
		c0.304-0.601,0.158-1.623-0.043-1.933c-0.127-0.118-0.338-0.226-0.606-0.254c-0.267-0.033-0.412,0.079-0.613,0.151
		c-0.371,0.275-0.536,0.626-0.737,1.404c-0.247,0.699-0.426,1.6-1.08,3.371c-0.652,1.77-2.262,6.573-2.867,8.278
		c-0.606,1.705-2.337,6.964-2.825,8.248c-0.367,1.053-0.655,1.83-1.352,3.541c0.246,0.311,0.33,0.467,0.656,0.467
		c0.163,0,0.696-0.117,1.184-0.311c0.139-0.524,0.532-1.146,0.739-1.557c0.206-0.406,0.629-1.098,0.883-1.521
		c0.327-0.543,1.045-1.615,1.287-1.941c0.628-0.852,1.403-1.814,1.69-2.191c0.435-0.57,1.404-1.773,1.627-2.053
		c0.221-0.277,0.408-0.58,0.737-0.58c0.37,0,0.492,0.703,0.531,1.439c0,0.311-0.039,1.671,0,2.334
		c0.043,1.402,0.168,3.505,0.574,4.787c0.25,1.049,0.956,1.809,1.939,1.809c0.246,0,0.61-0.078,0.895-0.199
		c0.652-0.232,1.066-0.506,1.638-0.98c0.571-0.473,1.141-1.059,2.163-2.381c0.41-0.506,0.616-0.818,0.822-1.166
		c-0.125-0.119-0.166-0.16-0.291-0.193C119.576,116.19,119.087,116.765,118.637,117.157 M102.85,113.856
		c-1.473,1.248-2.98,2.232-5.231,3.203c-2.172,0.896-4.64,1.428-6.647,1.428c-1.354,0-2.659-0.271-3.479-1.127
		c-0.778-0.818-0.981-1.83-0.981-2.801c0-0.623,0.12-1.592,0.364-2.5c0.172-0.641,0.731-2.285,1.557-3.7
		c1.679-2.866,3.927-5.591,6.852-7.381c1.271-0.778,2.684-1.044,3.936-1.055c0.807-0.014,1.521,0.204,2.052,0.825
		c0.289,0.351,0.393,0.608,0.393,1.19c0,0.158-0.112,0.726-0.278,0.92c-0.246,0.467-0.41,0.66-0.49,0.892
		c-0.168,0.432,0.08,1.288,0.244,1.637c0.081,0.039,0.123,0.033,0.166,0.039c0.27,0.027,1.027-1.295,1.861-2.931
		c0.832-1.637,2.017-4.555,1.984-4.93c-0.008-0.116-0.081-0.546-0.365-0.546c-0.164,0-0.408,0.43-0.493,0.546
		c-0.163,0.312-1.063,2.064-1.597,2.842c-0.081,0.152-0.204,0.232-0.285,0.232c-0.288,0-0.37-0.506-0.492-1.088
		c-0.125-0.937-1.023-1.832-2.541-1.832h-0.039c-2.663,0-5.666,1.25-7.806,3.17c-2.034,1.828-3.426,3.414-4.737,6.042
		c-1.107,2.179-1.742,4.632-1.723,6.925c0.027,2.904,0.709,3.811,0.979,4.256c0.284,0.469,0.941,1.334,1.952,1.8
		c0.876,0.405,1.864,0.599,2.683,0.599c0.899,0,1.959-0.184,2.711-0.357c0.753-0.174,1.783-0.471,2.218-0.621
		c0.374-0.131,0.995-0.398,1.706-0.732c0.894-0.422,1.777-0.992,2.464-1.473c0.689-0.48,2.267-1.852,2.544-2.139
		c0.457-0.48,0.674-0.688,0.82-0.939C103.228,113.964,103.096,113.856,102.85,113.856 M135.16,116.894
		c-1.105,1.283-2.456,1.803-3.439,1.828c-0.835,0.024-1.206-0.699-1.396-1.242c-0.161-0.547-0.247-1.059-0.247-1.643
		c0-0.855,0.124-1.512,0.289-2.291c0.455-2.297,0.934-2.977,1.479-4.191c0.544-1.219,1.717-2.504,1.799-2.58
		c0.205-0.155,0.37-0.313,0.41-0.545c0.043-0.506-0.098-0.786-0.246-0.973c-0.151-0.186-0.288-0.232-0.288-0.232
		c-0.408,0.039-0.591,0-1.041,0.547c-0.53,0.623-0.809,1.201-1.594,2.928c-0.246,0.505-0.722,1.351-0.722,1.351
		c-1.269,1.945-2.664,3.656-3.691,4.75c-0.7,0.736-2.825,2.914-3.977,2.914c-0.323,0-0.628-0.199-0.628-0.629
		c0-0.311,0.242-1,0.656-1.724c0.349-0.614,1.632-2.267,2.007-2.71c0.377-0.439,1.258-1.502,1.684-1.943
		c0.654-0.678,2.447-2.435,2.947-2.82c0.496-0.385,0.959-0.568,1.494-0.602c0.166,0,0.45,0,0.45-0.155
		c0-0.081-0.081-0.157-0.208-0.194c-0.49-0.276-1.308-0.508-1.756-0.508c-0.824,0-1.662,0.439-2.078,0.717
		c-0.281,0.193-1.217,0.937-2.052,1.858c-1.069,1.181-2.309,3.222-3.208,5.21c-0.535,1.166-0.984,2.686-0.984,3.93
		c0,1.125,0.493,1.785,1.311,1.785c0.287,0,0.572-0.074,0.82-0.189c0.406-0.156,0.803-0.419,1.165-0.688
		c0.415-0.307,0.976-0.824,1.304-1.174c0.33-0.351,1.427-1.643,1.892-2.256c0.198-0.261,0.803-0.967,1.12-1.41
		c0.218-0.307,0.482-0.596,0.482-0.596s0.186,0.053,0.186,0.25c0,0.189-0.083,0.502-0.125,0.699c-0.039,0.309-0.27,1.15-0.37,1.748
		c-0.099,0.598-0.156,1.363-0.099,2.061c0.072,0.893,0.594,2.178,2.067,2.178h0.042c1.555,0,3.561-1.631,4.706-3.031
		C135.365,116.974,135.281,116.974,135.16,116.894 M140.129,115.026c0.314-0.389,1.109-1.201,1.557-1.709
		c0.446-0.514,1.104-1.146,1.351-1.408c0.244-0.256,0.325-0.346,0.532-0.502c0.164-0.158,0.329-0.236,0.45-0.236
		c0.327,0,0.367,0.313,0.367,0.51c-0.04,0.428-0.327,1.596-0.367,2.1c-0.121,0.662-0.246,1.814-0.286,2.414
		c-0.045,0.598-0.04,2.021,0.248,2.84c0.245,0.738,0.759,1.232,1.615,1.252c0.854,0.018,1.654-0.374,2.185-0.686
		c0.284-0.193,1.236-0.846,1.832-1.441c0.596-0.592,0.958-0.992,1.202-1.459c0-0.117-0.04-0.275-0.121-0.313
		c-0.084,0.037-0.165,0.154-0.288,0.271c-0.614,0.662-1.925,1.789-3.358,1.789c-0.408,0-0.654-0.117-0.818-0.271
		c-0.125-0.078-0.423-0.539-0.574-1.01c-0.147-0.475-0.262-1.525-0.279-2.123c-0.021-0.855,0.034-1.459,0.198-2.508
		c0,0,0.194-1.293,0.45-2.295c0.252-1.006,0.673-2.016,0.838-2.364c0.162-0.345,0.321-0.58,0.473-0.832
		c0.081-0.156,0.325-0.468,0.41-0.739c-0.085-0.272-0.248-0.349-0.45-0.349c-0.248-0.041-1.025,0.12-1.191,0.309
		c-0.486,0.665-1.552,2.259-2.169,3.076c-0.613,0.781-3.68,4.371-4.076,4.729c-0.393,0.357-0.508,0.41-0.589,0.41
		c-0.167,0-0.205-0.115-0.205-0.195c0-0.078,0.038-0.117,0.038-0.156c0.161-0.234,0.656-1.229,1.078-2.084
		c0.451-0.914,0.902-2.373,1.06-3.437c0.094-0.618,0.027-1.632-0.174-2.082c-0.145-0.333-0.449-0.688-0.899-0.688
		c-0.573,0-1.271,0.467-1.72,0.82c-0.49,0.427-1.636,1.515-2.008,2.14c0.039,0.154,0.123,0.197,0.166,0.232
		c0.45-0.312,1.189-0.975,1.882-0.975c0.741,0,0.901,0.742,0.901,1.328c0,0.465-0.119,1.477-0.492,2.762
		c-0.939,2.996-2.538,5.486-3.644,7.158c0.042,0.078,0.042,0.152,0.082,0.193c0.246,0.35,0.697,0.467,1.062,0.506h0.249
		c0.044-0.115,0.55-1.002,0.884-1.482c0.333-0.479,0.936-1.412,1.412-2.021C139.309,116.036,139.813,115.417,140.129,115.026
		 M176.771,107.667l-5.366,1.639c-0.164,0-0.309,0.006-0.349-0.113c0.04-0.074,0.101-0.16,0.185-0.275
		c0.398-0.5,0.886-1.331,0.946-1.986c0.056-0.64-0.186-1.118-0.494-1.402c-0.304-0.287-0.871-0.279-1.187-0.242
		c-0.285,0.031-0.823,0.097-2.007,1.061c-1.184,0.962-1.993,2.151-2.296,2.605c-0.3,0.458-0.448,0.78-0.695,1.17
		c-0.286,0.424-0.613,0.893-1.149,1.125c-0.408,0.158-0.818,0.314-0.943,0.508c-0.284,0.352-0.236,0.512-0.281,1.018l1.224-0.357
		c-0.327,0.859-0.777,1.986-0.777,3.854c0,0.932,0.244,2.33,1.063,3.229c0.494,0.541,1.24,1.055,2.058,1.004
		c0.961-0.057,2.419-0.594,3.538-1.382c0.973-0.685,2.046-1.776,3.131-3.474c0-0.387-0.12-0.354-0.287-0.311
		c-0.083,0.113-0.638,0.838-1.599,1.596c-0.958,0.758-3.353,2.137-5.037,2.137h-0.042c-1.06,0-1.391-0.584-1.391-1.436
		c0-1.209,0.821-3.465,1.104-4.088c0.539-1.164,0.85-1.637,1.484-1.893c0.614-0.248,0.922-0.352,1.4-0.521
		c0.916-0.336,2.183-0.771,3.478-1.242c1.296-0.463,3.126-1.188,3.674-1.321c0.546-0.135,0.736-0.39,0.78-0.511
		c0.046-0.121,0.039-0.191,0.039-0.23C176.975,107.708,176.854,107.667,176.771,107.667 M168.047,110.315
		c-0.324,0.057-0.408-0.031-0.408-0.031c0.506-1.049,0.773-1.529,1.435-2.498c0.322-0.476,0.84-1.155,0.982-1.325
		c0.139-0.17,0.369-0.349,0.491-0.349h0.042c0.367,0,0.529,0.194,0.529,0.7c0,0.349-0.038,1.054-0.529,1.793
		C169.891,109.616,168.565,110.247,168.047,110.315 M159.697,118.412c-0.529,0-1.757,0.081-2.236,0.187
		c-0.371,0.078-0.833,0.162-1.083,0.201c-0.204-0.078-0.325-0.352-0.45-0.584c-0.408-0.895-0.53-1.129-0.615-1.633
		c0.043-0.195,0.777-0.826,1.027-1.133c0.246-0.301,0.942-1.242,1.227-1.709c0.409-0.738,0.927-1.883,1.101-2.393
		c0.118-0.344,0.401-1.338,0.456-1.615c0.052-0.28,0.323-0.604,0.654-0.66c0.333-0.057,0.521-0.07,1.089-0.173
		c0.577-0.104,2.036-0.422,2.599-0.65c0.556-0.22,0.691-0.414,0.858-0.543c0.044-0.234,0.044-0.27,0-0.31
		c-0.614,0.23-1.11,0.348-2.088,0.389c-0.816,0.041-1.72,0.08-2.702,0.08c0.081-0.276,0.123-0.663,0.123-1.016
		c0-0.273-0.083-0.701-0.288-1.053c-0.162-0.347-0.491-0.582-1.064-0.582h-0.039c-0.78,0-1.395,0.314-2.051,0.897
		c-0.981,0.819-3.029,3.193-3.194,4.435c-0.04,0.395-0.081,1.361-0.121,1.754c-0.042,0.195-0.614,1.439-0.779,1.752
		c-0.202,0.428-0.41,1.09-0.41,1.791c0,1.088,0.631,2.031,1.844,1.748c0.5-0.115,0.656-0.248,0.821-0.271
		c0.202-0.031,0.283,0.117,0.406,0.271c0.162,0.273,0.729,1.338,0.574,1.398c-0.451,0.197-1.389,0.432-2.128,0.664
		c-1.64,0.467-3.892,1.283-6.43,2.566c-2.7,1.365-8.353,4.709-8.353,9.105c0,0.734,0.163,1.516,0.612,2.297
		c1.024,1.861,2.956,2.482,4.212,2.832c1.25,0.35,3.1,0.607,5.396,0.449c1.721-0.115,3.009-0.469,3.961-0.754
		c1.004-0.307,1.697-0.621,2.52-1.051c0.975-0.51,2.111-1.307,2.986-2.137c0.869-0.836,2.344-2.42,2.344-5.332
		c0-0.818-0.123-1.715-0.451-2.609c-0.491-1.361-1.024-2.139-2.458-4.279c-0.167-0.268-0.452-0.703-0.531-0.895
		c-0.042-0.119,0.325-0.246,0.491-0.309c0.165-0.07,1.076-0.275,1.518-0.332c0.445-0.059,1.072-0.137,2.056-0.059
		c0.159,0,0.644,0.156,0.846,0.193c0-0.037,0.041-0.078,0.041-0.193C161.745,118.839,161.087,118.412,159.697,118.412
		 M153.391,116.622c-0.37,0-0.868-0.234-0.861-0.74c0.008-0.59,0.8-1.47,0.902-1.516c0.095-0.047,0.163-0.041,0.163-0.041
		c0.247,0.543,0.45,1.092,0.529,1.789C154.086,116.388,153.882,116.622,153.391,116.622 M154.944,115.806
		c-0.244-0.738-0.366-1.246-0.366-2.025c0-0.58,0-1.363,0.529-2.256c0.946-1.635,1.315-2.375,2.05-3.738
		c0.37-0.82,0.901-1.247,1.229-1.247h0.042c0.411,0,0.573,0.311,0.612,0.581c0.044,0.277,0,0.587,0,0.707
		c-0.449,0-0.774,0.039-1.02,0.115c-0.083,0.193-0.133,0.275-0.165,0.509c-0.032,0.23,0.056,0.684,0.248,1.01
		c0.036,0.078,0.036,0.234,0.036,0.35c0,0.779-0.327,1.635-0.695,2.336c-0.816,1.555-1.933,3.17-2.292,3.582
		C155.028,115.89,154.944,115.806,154.944,115.806 M159.084,126.892c0,2.682-2.09,4.512-3.728,5.484
		c-0.656,0.35-2.118,1.211-4.634,1.969c-0.805,0.24-3.443,0.689-5.074,0.715c-1.625,0.027-3.598-0.229-5.073-1.361
		c-0.987-0.777-1.192-1.637-1.192-2.334c0-0.545,0.17-1.248,0.535-2.021c0.363-0.775,1.851-2.244,2.622-2.844
		c0.771-0.594,1.774-1.221,3.535-2.213c1.763-0.988,2.373-1.293,3.961-2.008c1.587-0.711,4.952-2.088,5.325-2.152
		c0.427-0.072,0.65-0.121,0.979,0.15C157.937,122.767,159.084,124.907,159.084,126.892"/>
	<path clip-path="url(#SVGID_2_)" fill="#21B6EA" d="M46.037,94.303c-0.014-2.867,0.802-6.488,1.931-9.143
		c0.052-0.122,0.107-0.235,0.16-0.353c-4.979,3.38-8.287,9.037-8.432,15.458c0.039-0.051,0.064-0.106,0.102-0.159
		C41.135,98.183,43.775,96.006,46.037,94.303"/>
</g>
<g>
	<defs>
		<path id="SVGID_3_" d="M61.607,81.748c-0.389,0.025-0.762,0.094-0.977,0.124c-2.404,0.295-7.336,3.642-8.159,9.362
			c5.836-3.036,12.799-4.865,18.601-5.156c0.079-0.002,0.155-0.006,0.231-0.008c-2.78-2.364-6.246-3.925-10.047-4.394
			C61.4,81.698,61.525,81.724,61.607,81.748"/>
	</defs>
	<clipPath id="SVGID_4_">
		<use xlink:href="#SVGID_3_"  overflow="visible"/>
	</clipPath>
	
		<radialGradient id="SVGID_5_" cx="0" cy="216" r="1" gradientTransform="matrix(33.366 0 0 -33.3728 48.9944 7300.731)" gradientUnits="userSpaceOnUse">
		<stop  offset="0" style="stop-color:#21B6EA"/>
		<stop  offset="0.5" style="stop-color:#21B6EA"/>
		<stop  offset="0.9" style="stop-color:#0079C1"/>
		<stop  offset="1" style="stop-color:#0079C1"/>
	</radialGradient>
	<rect x="52.471" y="81.676" clip-path="url(#SVGID_4_)" fill="url(#SVGID_5_)" width="18.832" height="9.558"/>
</g>
<g>
	<defs>
		<path id="SVGID_6_" d="M53.043,98.32c1.34,7.83,9.607,15.884,16.893,18.073c-0.768,0.53-1.718,1.082-2.566,1.547
			c6.346-3.136,10.722-9.686,10.722-17.239c0-0.975-0.082-1.929-0.223-2.865c-2.674-1.618-6.993-2.56-11.596-2.56
			C61.701,95.275,56.847,96.204,53.043,98.32"/>
	</defs>
	<clipPath id="SVGID_7_">
		<use xlink:href="#SVGID_6_"  overflow="visible"/>
	</clipPath>
	
		<radialGradient id="SVGID_8_" cx="0" cy="216" r="1" gradientTransform="matrix(33.3782 0 0 -33.385 48.9978 7303.374)" gradientUnits="userSpaceOnUse">
		<stop  offset="0" style="stop-color:#21B6EA"/>
		<stop  offset="0.5" style="stop-color:#21B6EA"/>
		<stop  offset="0.9" style="stop-color:#0079C1"/>
		<stop  offset="1" style="stop-color:#0079C1"/>
	</radialGradient>
	<rect x="53.043" y="95.275" clip-path="url(#SVGID_7_)" fill="url(#SVGID_8_)" width="25.049" height="22.665"/>
</g>
<g>
	<defs>
		<path id="SVGID_9_" d="M42.01,109.868c2.819,5.182,7.954,8.926,14.002,9.838c-3.977-5.429-7.396-11.807-8.748-18.199
			C44.05,103.552,41.809,107.085,42.01,109.868"/>
	</defs>
	<clipPath id="SVGID_10_">
		<use xlink:href="#SVGID_9_"  overflow="visible"/>
	</clipPath>
	
		<radialGradient id="SVGID_11_" cx="0" cy="216" r="1" gradientTransform="matrix(33.3906 0 0 -33.3975 49.0122 7306.042)" gradientUnits="userSpaceOnUse">
		<stop  offset="0" style="stop-color:#21B6EA"/>
		<stop  offset="0.5" style="stop-color:#21B6EA"/>
		<stop  offset="0.9" style="stop-color:#0079C1"/>
		<stop  offset="1" style="stop-color:#0079C1"/>
	</radialGradient>
	<rect x="41.809" y="101.507" clip-path="url(#SVGID_10_)" fill="url(#SVGID_11_)" width="14.203" height="18.199"/>
</g>
<g>
	<defs>
		<rect id="SVGID_12_" width="448" height="216"/>
	</defs>
	<clipPath id="SVGID_13_">
		<use xlink:href="#SVGID_12_"  overflow="visible"/>
	</clipPath>
	<path clip-path="url(#SVGID_13_)" fill="#0079C1" d="M47.264,101.507c-0.152-0.723-0.296-1.442-0.393-2.159
		c-2.323,1.571-4.955,3.678-6.403,6.555c-0.013,0.025-0.026,0.047-0.038,0.075c0.007,0.023,0.016,0.053,0.02,0.08
		c0.09,0.391,0.28,0.923,0.498,1.463c0.262,0.695,0.56,1.373,0.896,2.021c0.102,0.207,0.166,0.334,0.166,0.326
		C41.809,107.085,44.049,103.552,47.264,101.507"/>
	<path clip-path="url(#SVGID_13_)" fill="#0079C1" d="M53.043,98.321c7.634-4.248,19.496-3.712,24.826-0.486
		c0.003,0,0.003,0,0.005,0.003c-0.005-0.024-0.011-0.044-0.016-0.064c-0.267-1.579-0.7-3.135-1.309-4.587
		c-0.06-0.144-0.124-0.289-0.188-0.433c-0.199-0.437-0.409-0.871-0.64-1.282c-0.05-0.007-0.102-0.007-0.153-0.011
		c-7.964-0.729-18.32,1.61-24.906,5.366c0.929,7.939,7.301,15.967,14.306,22.1c0.017,0.018,0.035,0.031,0.052,0.047
		c0.273-0.09,0.539-0.193,0.805-0.297c0.529-0.203,1.04-0.461,1.545-0.738c0.848-0.463,1.798-1.016,2.567-1.545
		C62.65,114.204,54.384,106.151,53.043,98.321"/>
	<path clip-path="url(#SVGID_13_)" fill="#0079C1" d="M53.404,84.253c-1.315,1.789-2.441,4.168-2.749,6.766
		c-0.045,0.414-0.084,0.83-0.087,1.257c0.615-0.366,1.259-0.706,1.903-1.042c0.823-5.721,5.756-9.067,8.159-9.362
		c0.215-0.029,0.588-0.099,0.977-0.124c-0.082-0.024-0.207-0.05-0.351-0.072c-0.275-0.045-1.391-0.212-2.491-0.229
		c-1.089-0.017-2.111,0.08-2.857,0.236c-0.026,0.017-0.053,0.044-0.082,0.064C55.049,82.315,54.195,83.178,53.404,84.253"/>
	<path clip-path="url(#SVGID_13_)" fill="#FFFFFF" d="M50.662,96.827c6.628-3.781,16.917-6.149,24.901-5.378
		c0.056,0.003,0.108,0.015,0.159,0.023c-1.133-2.062-2.638-3.892-4.419-5.402c-0.076,0.002-0.152,0.006-0.23,0.008
		c-5.803,0.291-12.765,2.12-18.601,5.156c-0.645,0.336-1.289,0.676-1.904,1.042c0.003-0.428,0.042-0.843,0.088-1.258
		c0.307-2.597,1.433-4.976,2.748-6.765c0.791-1.075,1.645-1.938,2.422-2.506c0.029-0.021,0.056-0.047,0.082-0.064
		c-2.517,0.399-4.868,1.284-6.96,2.563c-0.264,0.16-0.531,0.309-0.783,0.478c-0.012,0.025-0.024,0.055-0.037,0.083
		c-0.053,0.118-0.107,0.231-0.16,0.353c-1.128,2.655-1.945,6.276-1.931,9.143c-2.261,1.703-4.902,3.88-6.238,5.803
		c-0.039,0.053-0.064,0.108-0.102,0.159c0,0.07-0.005,0.421,0,0.868v0.005c0.008,0.518,0.03,1.166,0.092,1.66
		c0.029,0.227,0.071,0.46,0.107,0.689c0.031,0.235,0.071,0.466,0.11,0.697c0.073,0.42,0.154,0.838,0.271,1.247
		c0.052,0.181,0.094,0.368,0.154,0.546c0.011-0.027,0.024-0.049,0.038-0.075c1.447-2.877,4.079-4.983,6.403-6.554
		c0.096,0.716,0.241,1.436,0.393,2.159c1.352,6.392,4.771,12.769,8.747,18.199c0.936,0.141,1.897,0.215,2.872,0.215
		c2.126,0,4.174-0.354,6.085-0.994C57.963,112.794,51.591,104.765,50.662,96.827"/>
	<path clip-path="url(#SVGID_13_)" fill="#0079C1" d="M177.883,115.522c1.222,0,2.171,0.947,2.171,2.131
		c0,1.209-0.949,2.145-2.184,2.145c-1.222,0-2.197-0.936-2.197-2.145c0-1.184,0.975-2.131,2.197-2.131H177.883z M177.857,115.95
		c-0.936,0-1.638,0.768-1.638,1.703c0,0.949,0.702,1.703,1.664,1.703c0.935,0.014,1.625-0.754,1.625-1.703
		c0-0.936-0.69-1.703-1.638-1.703H177.857z M177.532,118.759h-0.494v-2.119c0.194-0.039,0.468-0.078,0.819-0.078
		c0.403,0,0.584,0.064,0.741,0.17c0.117,0.09,0.208,0.26,0.208,0.455c0,0.246-0.182,0.428-0.442,0.506v0.025
		c0.207,0.066,0.325,0.234,0.39,0.521c0.064,0.324,0.104,0.455,0.156,0.52h-0.533c-0.065-0.078-0.104-0.26-0.169-0.507
		c-0.039-0.233-0.169-0.339-0.442-0.339h-0.234V118.759z M177.545,117.563h0.233c0.274,0,0.495-0.092,0.495-0.313
		c0-0.195-0.143-0.326-0.456-0.326c-0.129,0-0.22,0.014-0.272,0.027V117.563z"/>
	<line clip-path="url(#SVGID_13_)" fill="none" stroke="#000000" x1="203.5" y1="71.5" x2="203.5" y2="134.5"/>
	<path clip-path="url(#SVGID_13_)" d="M246.115,105.697v3.447c0.778,0.407,2.632,0.927,4.707,0.927c3.299,0,5.485-1.483,5.485-4.263
		c0-2.075-1.26-2.89-4.04-3.669l-4.596-1.297c-2.965-0.853-5.634-2.595-5.634-6.746c0-5.115,4.337-7.598,9.785-7.598
		c3.373,0,5.894,0.704,7.857,1.261v5.744h-3.929V90.39c-0.556-0.223-1.891-0.631-3.892-0.631c-3.854,0-5.448,1.743-5.448,3.744
		c0,2.261,1.668,3.039,4.003,3.632l4.003,1.038c2.965,0.778,6.264,2.409,6.264,6.968c0,5.152-3.817,8.191-9.971,8.191
		c-1.89,0-6.485-0.481-8.746-1.371v-6.264H246.115z"/>
	<path clip-path="url(#SVGID_13_)" d="M263.754,93.615h2.928l0.074-4.336l4.188-0.297l-0.147,4.633h5.522v3.039h-5.522
		c-0.037,3.076-0.074,6.116-0.074,9.006c0,3.522,0.778,4.412,2.705,4.412c1.112,0,2.298-0.372,3.225-0.742l-0.148,3.04
		c-1.037,0.519-2.631,0.963-4.262,0.963c-4.077,0-5.671-1.594-5.671-5.929c0-2.484,0.074-7.413,0.111-10.749h-2.928V93.615z"/>
	<path clip-path="url(#SVGID_13_)" d="M277.687,93.615h6.709c-0.074,3.817-0.148,7.672-0.148,11.527c0,2.705,1.26,4.707,3.78,4.707
		c2.743,0,4.93-2.261,4.967-5.857l0.074-7.338h-2.521v-3.039h6.672l-0.074,16.234h2.594v3.039h-6.671
		c0-1.297,0.111-2.632,0.37-4.263h-0.074c-0.778,2.855-3.706,4.708-6.745,4.708c-4.114,0-6.523-2.854-6.523-7.375
		c0-3.15,0.037-6.227,0.148-9.303h-2.558V93.615z"/>
	<path clip-path="url(#SVGID_13_)" d="M323.085,112.888h-6.523c0-1.37,0.186-2.816,0.372-3.929h-0.075
		c-1.001,2.595-3.113,4.373-6.412,4.373c-4.633,0-8.043-3.409-8.043-9.154c0-6.375,3.782-11.008,10.341-11.008
		c1.371,0,2.669,0.185,3.817,0.445l0.074-6.19h-3.521v-3.039h7.523l-0.148,25.462h2.595V112.888z M316.414,97.247
		c-0.853-0.519-2.15-0.815-3.67-0.815c-3.817,0-5.967,3.335-5.967,7.116c0,3.595,1.557,6.3,4.67,6.3
		c3.336,0,4.967-2.744,4.967-7.228V97.247z"/>
	<path clip-path="url(#SVGID_13_)" d="M342.688,111.998c-1.334,0.556-3.892,1.334-6.783,1.334
		c-6.374-0.037-10.155-3.966-10.155-10.006c0-5.708,3.226-10.156,9.451-10.156c5.782,0,8.71,4.225,8.71,10.193v0.555h-13.787
		c0.037,3.745,2.779,6.154,6.597,6.154c2.409,0,4.522-0.631,6.19-1.484L342.688,111.998z M339.537,101.102v-0.371
		c0-1.593-1.038-4.522-4.559-4.522c-3.521,0-4.707,2.558-4.855,4.893H339.537z"/>
	<path clip-path="url(#SVGID_13_)" d="M346.798,109.849h2.188l0.073-13.195h-2.706v-3.039h6.857c0,1.297-0.111,2.631-0.371,4.262
		h0.074c0.779-2.483,2.928-4.707,6.782-4.707c4.522,0,6.709,2.854,6.709,7.45c0,3.077-0.111,6.153-0.148,9.229h2.521v3.039h-8.859
		v-3.039h2.187c0.037-2.817,0.148-5.671,0.148-8.487c0-2.706-1.26-4.708-3.892-4.708c-2.854,0-5.004,2.261-5.077,5.856l-0.148,7.339
		h2.594v3.039h-8.932V109.849z"/>
	<path clip-path="url(#SVGID_13_)" d="M370.848,93.615h2.928l0.074-4.336l4.188-0.297l-0.147,4.633h5.522v3.039h-5.522
		c-0.037,3.076-0.074,6.116-0.074,9.006c0,3.522,0.778,4.412,2.705,4.412c1.112,0,2.298-0.372,3.225-0.742l-0.148,3.04
		c-1.037,0.519-2.631,0.963-4.262,0.963c-4.077,0-5.671-1.594-5.671-5.929c0-2.484,0.074-7.413,0.111-10.749h-2.928V93.615z"/>
	<path clip-path="url(#SVGID_13_)" d="M396.345,99.137l-0.074-2.298c-0.593-0.334-1.482-0.63-3.15-0.63
		c-1.928,0-3.892,0.445-3.892,2.335c0,1.483,1.26,1.89,2.446,2.149l4.707,0.927c2.187,0.445,4.67,1.372,4.67,5.301
		c0,5.077-4.374,6.411-8.636,6.411c-3.262,0-5.782-0.704-7.005-1.148l-0.074-5.226h3.706l0.074,2.557
		c0.741,0.223,2.038,0.778,4.114,0.778c1.964,0,3.892-0.741,3.892-2.705c0-1.631-1.224-2.151-2.78-2.447l-3.076-0.556
		c-2.965-0.556-6.189-1.667-6.189-5.337c0-4.522,3.966-6.078,8.191-6.078c3.15,0,5.56,0.889,6.708,1.26l0.074,4.707H396.345z"/>
</g>
</svg>
