<?xml version="1.0" encoding="utf-8"?>
<!-- Generator: Adobe Illustrator 13.0.0, SVG Export Plug-In . SVG Version: 6.00 Build 14948)  -->
<!DOCTYPE svg PUBLIC "-//W3C//DTD SVG 1.1//EN" "http://www.w3.org/Graphics/SVG/1.1/DTD/svg11.dtd">
<svg version="1.1" id="Layer_2" xmlns="http://www.w3.org/2000/svg" xmlns:xlink="http://www.w3.org/1999/xlink" x="0px" y="0px"
	 viewBox="0 0 140.359 56.101" enable-background="new 0 0 140.359 56.101"
	 xml:space="preserve">
<g>
	<g>
		<g>
			<path d="M87.112,16.382c-2.408,0-4.205,2.204-4.205,4.462c0,1.704,0.906,2.26,2.463,2.26c2.127,0,4.115-2.122,4.115-4.573
				C89.485,16.938,88.543,16.382,87.112,16.382z M85.771,22.548c-0.785,0-1.018-0.875-1.018-1.815c0-1.564,0.678-3.795,1.838-3.795
				c0.86,0,1.046,0.512,1.046,1.702C87.637,20.112,87.032,22.548,85.771,22.548z M81.339,14.981l-0.25-0.083
				c-0.645,0.375-1.216,0.75-1.832,1.261l-0.092,0.431l-1.262,0.151l-0.047,0.278l1.201,0.126l-0.725,3.631
				c-0.078,0.387-0.152,1.052-0.152,1.273c0,0.691,0.324,1.055,0.877,1.055c1.601,0,2.568-1.094,3.109-1.818l-0.308-0.26
				c-0.278,0.305-0.973,1.147-1.495,1.147c-0.447,0-0.478-0.319-0.478-0.665c0-0.207,0.047-0.567,0.173-1.177l0.629-3.187
				l1.848-0.126l0.045-0.278l-1.783-0.151C80.874,16.09,81.21,15.289,81.339,14.981z M47.112,0.276h-5.935V0.75l0.534,0.053
				c1.049,0.11,1.049,0.386,1.049,2.174v6.667c0,1.806,0,2.062-1.049,2.153l-0.534,0.057v0.474h6.404v-0.474l-0.849-0.057
				c-1.05-0.091-1.071-0.347-1.071-2.153V1.097c0.358-0.075,0.717-0.127,1.095-0.127c1.875,0,3.414,0.876,3.414,2.795
				c0,2.209-1.45,2.792-3.101,2.974v0.694c2.343-0.054,6.003-0.84,6.003-3.926C53.071,0.676,49.856,0.276,47.112,0.276z M62.962,0
				c-4.285,0-8.011,2.339-8.011,6.539c0,4.071,3.504,6.063,7.788,6.063c4.304,0,8.031-2.338,8.031-6.539
				C70.77,1.993,67.269,0,62.962,0z M62.986,11.904c-3.438,0-4.778-2.793-4.778-5.804c0-2.904,1.408-5.405,4.51-5.405
				c3.457,0,4.795,2.794,4.795,5.806C67.514,9.406,66.107,11.904,62.986,11.904z M87.71,0.75l1.05,0.145
				c0.401,0.074,0.757,0.127,0.757,0.438c0,0.274-0.246,1.096-0.536,2.138l-1.964,5.879h-0.045L83.022,0.55
				c-0.402,0.037-0.779,0.072-1.137,0.182l-3.328,8.583h-0.044L76.04,2.266c-0.068-0.201-0.269-0.785-0.269-0.933
				c0-0.237,0.156-0.312,0.87-0.438l0.871-0.145V0.276h-6.361V0.75l0.601,0.127c0.804,0.202,0.895,0.529,1.297,1.536l3.995,10.096
				c0.534-0.018,0.916-0.073,1.404-0.182l3.324-8.18h0.045l3.838,8.362c0.513-0.018,0.893-0.054,1.406-0.182l3.415-8.856
				c0.692-1.826,1.004-2.502,1.808-2.63l0.578-0.091V0.276H87.71V0.75z M102.077,11.433c-0.759,0-2.512,0.073-3.248-0.073V6.483
				h1.605c1.854,0,2.188,0,2.344,0.805l0.111,0.584h0.581V4.238h-0.581l-0.111,0.637c-0.135,0.769-0.445,0.787-2.434,0.787h-1.516
				V0.969h2.473c2.346,0,3.081,0.036,3.66,2.355l0.803-0.091c0-0.931,0-2.028-0.267-2.958H94.337V0.75l0.537,0.053
				c1.049,0.202,1.049,0.11,1.049,2.174v6.647c0,2.062,0,2.008-1.049,2.172l-0.537,0.057v0.474h11.719
				c0.446-1.115,0.627-2.064,0.737-3.342l-0.804-0.128C105.543,10.228,105.425,11.433,102.077,11.433z M121.336,11.17
				c-1.527-1.731-3.349-3.855-3.682-4.477c1.271-0.472,2.358-1.638,2.358-3.246c0-2.867-2.469-3.172-4.521-3.172h-6.924V0.75
				l0.513,0.053c1.069,0.129,1.069,0.311,1.069,2.156v6.665c0,1.825,0,2.045-1.047,2.172l-0.535,0.057v0.474h6.071v-0.474
				l-0.539-0.057c-1.047-0.127-1.047-0.347-1.047-2.153v-2.54h0.715c1.406,0,1.823,0.675,2.603,1.901l0.85,1.35
				c0.488,0.804,1.483,1.972,3.734,1.972h2.151v-0.474C122.704,11.816,121.768,11.66,121.336,11.17z M114.147,6.41h-1.094V1.097
				c0.38-0.092,0.759-0.127,1.159-0.127c1.787,0,3.396,0.949,3.396,2.628C117.608,4.383,117.294,6.41,114.147,6.41z"/>
		</g>
	</g>
	<g>
		<g>
			<path fill="#0079C1" d="M78.942,36.305c-0.453,0.393-0.661,0.531-0.996,0.709c-0.337,0.176-0.793,0.395-1.314,0.389
				c-1.836-0.021-2.144-2.855-2.21-3.424c-0.065-0.572-0.123-1.555-0.123-1.555c-0.081-1.324-0.081-2.533,0.162-4.789
				c0.126-1.166,0.29-1.868,0.491-2.57c-0.201-0.154-0.491-0.27-0.653-0.27c-0.612,0-1.267,0.701-1.599,1.203l-5.812,8.135
				c-0.453,0.309-0.489,0.236-0.453-0.154c0,0,1.561-4.227,1.887-5.135c0.33-0.909,1.317-3.446,1.599-4.167
				c0.283-0.723,0.859-2.196,1.597-4.036c0.735-1.841,1.372-3.456,2.054-4.643c0.305-0.601,0.158-1.623-0.043-1.933
				c-0.127-0.118-0.338-0.226-0.605-0.255c-0.268-0.033-0.412,0.079-0.613,0.152c-0.371,0.275-0.536,0.626-0.737,1.403
				c-0.247,0.7-0.426,1.601-1.08,3.372c-0.651,1.77-2.262,6.572-2.866,8.277c-0.606,1.705-2.337,6.965-2.825,8.248
				c-0.367,1.053-0.655,1.83-1.353,3.541c0.247,0.311,0.33,0.467,0.657,0.467c0.163,0,0.696-0.117,1.184-0.311
				c0.139-0.523,0.532-1.146,0.738-1.557c0.206-0.406,0.629-1.098,0.883-1.521c0.327-0.543,1.046-1.615,1.287-1.941
				c0.628-0.852,1.403-1.814,1.69-2.191c0.435-0.57,1.404-1.773,1.627-2.053c0.221-0.277,0.408-0.58,0.737-0.58
				c0.37,0,0.491,0.703,0.53,1.439c0,0.311-0.039,1.672,0,2.334c0.043,1.402,0.168,3.504,0.574,4.787
				c0.25,1.049,0.956,1.809,1.939,1.809c0.246,0,0.609-0.078,0.895-0.199c0.652-0.232,1.066-0.506,1.639-0.98
				c0.57-0.473,1.141-1.059,2.162-2.381c0.41-0.506,0.616-0.818,0.822-1.166c-0.125-0.119-0.166-0.16-0.291-0.193
				C79.882,35.338,79.393,35.913,78.942,36.305z M63.155,33.004c-1.472,1.248-2.98,2.232-5.23,3.203
				c-2.172,0.896-4.64,1.428-6.647,1.428c-1.354,0-2.659-0.271-3.479-1.127c-0.777-0.818-0.981-1.83-0.981-2.801
				c0-0.623,0.121-1.592,0.364-2.5c0.173-0.641,0.731-2.285,1.557-3.7c1.68-2.866,3.927-5.591,6.853-7.381
				c1.271-0.778,2.684-1.043,3.936-1.055c0.807-0.014,1.521,0.205,2.053,0.826c0.288,0.351,0.393,0.607,0.393,1.189
				c0,0.158-0.112,0.727-0.278,0.92c-0.246,0.467-0.41,0.66-0.489,0.893c-0.168,0.432,0.079,1.288,0.243,1.637
				c0.081,0.039,0.124,0.033,0.166,0.039c0.271,0.027,1.027-1.295,1.861-2.932c0.833-1.637,2.017-4.555,1.984-4.93
				c-0.009-0.116-0.081-0.546-0.365-0.546c-0.165,0-0.408,0.43-0.493,0.546c-0.163,0.313-1.063,2.064-1.598,2.842
				c-0.081,0.152-0.204,0.232-0.285,0.232c-0.288,0-0.369-0.506-0.491-1.088c-0.125-0.937-1.023-1.832-2.541-1.832h-0.039
				c-2.663,0-5.667,1.25-7.807,3.17c-2.034,1.828-3.425,3.414-4.737,6.042c-1.107,2.179-1.742,4.632-1.723,6.925
				c0.027,2.904,0.709,3.811,0.979,4.256c0.284,0.469,0.941,1.334,1.952,1.801c0.876,0.404,1.864,0.598,2.683,0.598
				c0.899,0,1.959-0.184,2.711-0.357s1.782-0.471,2.218-0.621c0.374-0.131,0.995-0.398,1.706-0.732
				c0.895-0.422,1.777-0.992,2.464-1.473c0.689-0.48,2.267-1.852,2.544-2.139c0.457-0.48,0.674-0.688,0.82-0.939
				C63.534,33.112,63.402,33.004,63.155,33.004z M95.466,36.042c-1.105,1.283-2.456,1.803-3.439,1.828
				c-0.835,0.023-1.206-0.699-1.396-1.242c-0.161-0.547-0.247-1.059-0.247-1.643c0-0.855,0.124-1.512,0.289-2.291
				c0.455-2.297,0.934-2.977,1.479-4.191c0.544-1.219,1.718-2.504,1.799-2.58c0.205-0.155,0.37-0.313,0.41-0.545
				c0.043-0.506-0.098-0.786-0.246-0.973c-0.15-0.187-0.287-0.232-0.287-0.232c-0.408,0.039-0.592,0-1.041,0.547
				c-0.53,0.623-0.81,1.201-1.595,2.929c-0.246,0.505-0.722,1.351-0.722,1.351c-1.27,1.945-2.664,3.656-3.691,4.75
				c-0.699,0.736-2.824,2.914-3.977,2.914c-0.323,0-0.628-0.199-0.628-0.629c0-0.311,0.242-1,0.656-1.723
				c0.349-0.615,1.632-2.268,2.007-2.711c0.377-0.439,1.258-1.502,1.684-1.943c0.654-0.678,2.447-2.436,2.947-2.82
				c0.496-0.385,0.959-0.567,1.494-0.602c0.166,0,0.45,0,0.45-0.155c0-0.081-0.081-0.157-0.208-0.194
				c-0.49-0.275-1.309-0.508-1.757-0.508c-0.823,0-1.661,0.439-2.077,0.717c-0.281,0.193-1.218,0.938-2.053,1.858
				c-1.068,1.181-2.309,3.222-3.208,5.21c-0.535,1.166-0.983,2.686-0.983,3.93c0,1.125,0.492,1.785,1.311,1.785
				c0.287,0,0.572-0.074,0.82-0.189c0.406-0.156,0.803-0.42,1.165-0.688c0.415-0.307,0.976-0.824,1.304-1.174
				c0.33-0.35,1.427-1.643,1.892-2.256c0.198-0.26,0.804-0.967,1.12-1.41c0.219-0.307,0.482-0.596,0.482-0.596
				s0.186,0.053,0.186,0.25c0,0.189-0.083,0.502-0.125,0.699c-0.039,0.309-0.27,1.15-0.369,1.748s-0.156,1.363-0.1,2.061
				c0.072,0.893,0.594,2.178,2.067,2.178h0.042c1.555,0,3.561-1.631,4.706-3.031C95.671,36.122,95.587,36.122,95.466,36.042z
				 M100.435,34.174c0.314-0.389,1.109-1.201,1.557-1.709c0.446-0.514,1.104-1.146,1.352-1.408c0.244-0.256,0.325-0.346,0.532-0.502
				c0.164-0.158,0.329-0.236,0.449-0.236c0.327,0,0.367,0.313,0.367,0.51c-0.04,0.428-0.327,1.596-0.367,2.1
				c-0.12,0.662-0.245,1.814-0.285,2.414c-0.046,0.598-0.04,2.021,0.248,2.84c0.244,0.738,0.759,1.232,1.614,1.252
				c0.854,0.018,1.654-0.373,2.186-0.686c0.284-0.193,1.235-0.846,1.832-1.441c0.596-0.592,0.958-0.992,1.202-1.459
				c0-0.117-0.04-0.275-0.121-0.313c-0.084,0.037-0.165,0.154-0.288,0.271c-0.614,0.662-1.925,1.789-3.358,1.789
				c-0.408,0-0.654-0.117-0.818-0.271c-0.125-0.078-0.423-0.539-0.573-1.01c-0.147-0.475-0.263-1.525-0.279-2.123
				c-0.021-0.855,0.034-1.459,0.198-2.508c0,0,0.193-1.293,0.45-2.295c0.252-1.006,0.673-2.016,0.838-2.363
				c0.162-0.346,0.32-0.58,0.473-0.832c0.081-0.156,0.325-0.469,0.41-0.739c-0.085-0.272-0.248-0.349-0.45-0.349
				c-0.248-0.041-1.024,0.119-1.191,0.309c-0.485,0.665-1.552,2.259-2.169,3.076c-0.612,0.781-3.68,4.371-4.075,4.729
				c-0.394,0.357-0.509,0.41-0.59,0.41c-0.167,0-0.204-0.115-0.204-0.195c0-0.078,0.037-0.117,0.037-0.156
				c0.161-0.234,0.656-1.229,1.078-2.084c0.451-0.914,0.902-2.373,1.061-3.437c0.094-0.618,0.026-1.632-0.174-2.082
				c-0.146-0.333-0.449-0.688-0.899-0.688c-0.573,0-1.271,0.467-1.72,0.819c-0.49,0.428-1.637,1.516-2.008,2.141
				c0.039,0.154,0.123,0.197,0.166,0.232c0.449-0.312,1.188-0.975,1.882-0.975c0.741,0,0.9,0.742,0.9,1.328
				c0,0.465-0.119,1.477-0.491,2.762c-0.939,2.996-2.538,5.486-3.645,7.158c0.042,0.078,0.042,0.152,0.082,0.193
				c0.246,0.35,0.697,0.467,1.063,0.506h0.249c0.044-0.115,0.55-1.002,0.884-1.482c0.333-0.479,0.936-1.412,1.412-2.021
				C99.614,35.184,100.118,34.565,100.435,34.174z M137.076,26.815l-5.365,1.639c-0.164,0-0.31,0.006-0.35-0.113
				c0.04-0.074,0.102-0.16,0.186-0.274c0.397-0.5,0.886-1.331,0.945-1.986c0.057-0.64-0.186-1.118-0.493-1.402
				c-0.305-0.287-0.871-0.278-1.188-0.242c-0.285,0.031-0.823,0.098-2.007,1.062c-1.184,0.962-1.993,2.151-2.296,2.605
				c-0.3,0.457-0.448,0.779-0.695,1.17c-0.286,0.424-0.613,0.893-1.148,1.125c-0.408,0.158-0.818,0.314-0.943,0.508
				c-0.284,0.352-0.236,0.512-0.281,1.018l1.225-0.357c-0.327,0.859-0.777,1.986-0.777,3.854c0,0.932,0.244,2.33,1.063,3.229
				c0.494,0.541,1.24,1.055,2.059,1.004c0.961-0.057,2.419-0.594,3.538-1.383c0.973-0.684,2.046-1.775,3.131-3.473
				c0-0.387-0.12-0.354-0.287-0.311c-0.083,0.113-0.638,0.838-1.599,1.596c-0.958,0.758-3.354,2.137-5.037,2.137h-0.042
				c-1.061,0-1.392-0.584-1.392-1.436c0-1.209,0.821-3.465,1.104-4.088c0.539-1.164,0.85-1.637,1.483-1.893
				c0.614-0.248,0.923-0.352,1.4-0.521c0.916-0.336,2.183-0.771,3.479-1.242c1.296-0.463,3.126-1.188,3.674-1.321
				c0.546-0.135,0.735-0.39,0.779-0.511c0.047-0.121,0.039-0.191,0.039-0.23C137.28,26.856,137.159,26.815,137.076,26.815z
				 M128.353,29.463c-0.324,0.057-0.408-0.031-0.408-0.031c0.506-1.049,0.773-1.528,1.436-2.498c0.321-0.476,0.84-1.154,0.981-1.324
				c0.14-0.17,0.369-0.35,0.491-0.35h0.042c0.367,0,0.529,0.194,0.529,0.7c0,0.349-0.038,1.054-0.529,1.793
				C130.196,28.764,128.871,29.395,128.353,29.463z M120.003,37.561c-0.529,0-1.757,0.08-2.236,0.186
				c-0.371,0.078-0.833,0.162-1.083,0.201c-0.204-0.078-0.325-0.352-0.45-0.584c-0.408-0.895-0.529-1.129-0.614-1.633
				c0.043-0.195,0.776-0.826,1.026-1.133c0.246-0.301,0.942-1.242,1.228-1.709c0.408-0.738,0.927-1.883,1.101-2.393
				c0.118-0.344,0.401-1.338,0.456-1.615c0.052-0.279,0.323-0.604,0.654-0.66c0.333-0.057,0.521-0.07,1.089-0.173
				c0.577-0.104,2.036-0.422,2.599-0.649c0.556-0.221,0.691-0.414,0.858-0.543c0.044-0.234,0.044-0.271,0-0.311
				c-0.614,0.23-1.11,0.348-2.088,0.389c-0.816,0.041-1.721,0.08-2.702,0.08c0.081-0.275,0.123-0.662,0.123-1.016
				c0-0.273-0.083-0.701-0.288-1.053c-0.162-0.348-0.491-0.582-1.064-0.582h-0.039c-0.779,0-1.395,0.313-2.051,0.896
				c-0.98,0.819-3.029,3.193-3.193,4.436c-0.04,0.395-0.081,1.361-0.121,1.754c-0.042,0.195-0.614,1.439-0.779,1.752
				c-0.202,0.428-0.41,1.09-0.41,1.791c0,1.088,0.631,2.031,1.844,1.748c0.5-0.115,0.656-0.248,0.821-0.271
				c0.202-0.031,0.283,0.117,0.406,0.271c0.162,0.273,0.729,1.338,0.574,1.398c-0.451,0.197-1.39,0.432-2.129,0.664
				c-1.64,0.467-3.892,1.283-6.43,2.566c-2.7,1.365-8.353,4.709-8.353,9.105c0,0.734,0.163,1.516,0.611,2.297
				c1.024,1.861,2.956,2.482,4.212,2.832c1.25,0.35,3.101,0.607,5.396,0.449c1.721-0.115,3.009-0.469,3.961-0.754
				c1.004-0.307,1.697-0.621,2.521-1.051c0.975-0.51,2.11-1.307,2.985-2.137c0.869-0.836,2.344-2.42,2.344-5.332
				c0-0.818-0.123-1.715-0.45-2.609c-0.491-1.361-1.024-2.139-2.458-4.279c-0.167-0.268-0.452-0.703-0.531-0.895
				c-0.042-0.119,0.325-0.246,0.491-0.309c0.165-0.07,1.075-0.275,1.518-0.332c0.445-0.059,1.072-0.137,2.056-0.059
				c0.159,0,0.645,0.156,0.847,0.193c0-0.037,0.041-0.078,0.041-0.193C122.051,37.987,121.393,37.561,120.003,37.561z
				 M113.696,35.77c-0.369,0-0.867-0.234-0.86-0.74c0.008-0.59,0.8-1.469,0.901-1.516c0.096-0.047,0.163-0.041,0.163-0.041
				c0.247,0.543,0.45,1.092,0.529,1.789C114.392,35.536,114.188,35.77,113.696,35.77z M115.25,34.954
				c-0.244-0.738-0.366-1.246-0.366-2.025c0-0.58,0-1.363,0.529-2.256c0.945-1.635,1.314-2.375,2.05-3.738
				c0.37-0.819,0.9-1.246,1.229-1.246h0.042c0.411,0,0.573,0.311,0.612,0.581c0.044,0.276,0,0.587,0,0.706
				c-0.449,0-0.774,0.039-1.021,0.115c-0.083,0.193-0.133,0.275-0.164,0.509c-0.032,0.23,0.056,0.685,0.247,1.011
				c0.036,0.078,0.036,0.234,0.036,0.35c0,0.779-0.327,1.635-0.694,2.336c-0.816,1.555-1.934,3.17-2.292,3.582
				C115.334,35.038,115.25,34.954,115.25,34.954z M119.39,46.04c0,2.682-2.09,4.512-3.728,5.484
				c-0.656,0.35-2.118,1.211-4.635,1.969c-0.805,0.24-3.442,0.689-5.073,0.715c-1.625,0.027-3.599-0.23-5.073-1.361
				c-0.987-0.777-1.192-1.637-1.192-2.334c0-0.545,0.17-1.248,0.535-2.021c0.363-0.775,1.851-2.244,2.622-2.844
				c0.771-0.594,1.774-1.221,3.535-2.213c1.763-0.988,2.373-1.293,3.961-2.008c1.587-0.711,4.952-2.088,5.325-2.152
				c0.427-0.072,0.649-0.121,0.979,0.15C118.242,41.915,119.39,44.055,119.39,46.04z"/>
		</g>
	</g>
	<g>
		<path fill="#21B6EA" d="M6.343,13.451c-0.014-2.867,0.802-6.488,1.931-9.143c0.053-0.122,0.107-0.236,0.16-0.353
			c-4.979,3.38-8.287,9.036-8.432,15.458c0.039-0.052,0.063-0.106,0.102-0.159C1.44,17.332,4.081,15.154,6.343,13.451z"/>
		
			<radialGradient id="SVGID_1_" cx="-155.8506" cy="11.3384" r="34.1061" gradientTransform="matrix(0.9783 0 0 0.9785 161.7725 0.2502)" gradientUnits="userSpaceOnUse">
			<stop  offset="0.5" style="stop-color:#21B6EA"/>
			<stop  offset="0.9" style="stop-color:#0079C1"/>
		</radialGradient>
		<path fill="url(#SVGID_1_)" d="M20.936,1.02c-2.403,0.295-7.336,3.641-8.159,9.362c5.836-3.036,12.799-4.865,18.601-5.156
			c0.079-0.002,0.154-0.006,0.23-0.008c-2.779-2.364-6.245-3.925-10.047-4.394c0.145,0.022,0.27,0.047,0.351,0.072
			C21.524,0.921,21.151,0.991,20.936,1.02z"/>
		
			<radialGradient id="SVGID_2_" cx="-155.853" cy="11.3389" r="34.1189" gradientTransform="matrix(0.9783 0 0 0.9785 161.7725 0.2502)" gradientUnits="userSpaceOnUse">
			<stop  offset="0.5" style="stop-color:#21B6EA"/>
			<stop  offset="0.9" style="stop-color:#0079C1"/>
		</radialGradient>
		<path fill="url(#SVGID_2_)" d="M13.349,17.469c1.341,7.83,9.607,15.883,16.894,18.073c-0.769,0.529-1.719,1.082-2.567,1.545
			c6.347-3.135,10.723-9.685,10.723-17.238c0-0.976-0.082-1.929-0.223-2.865C32.845,13.757,20.983,13.221,13.349,17.469z"/>
		
			<radialGradient id="SVGID_3_" cx="-155.8438" cy="11.3354" r="34.1306" gradientTransform="matrix(0.9783 0 0 0.9785 161.7725 0.2502)" gradientUnits="userSpaceOnUse">
			<stop  offset="0.5" style="stop-color:#21B6EA"/>
			<stop  offset="0.9" style="stop-color:#0079C1"/>
		</radialGradient>
		<path fill="url(#SVGID_3_)" d="M2.315,29.016c2.819,5.182,7.954,8.926,14.001,9.838c-3.976-5.43-7.395-11.807-8.747-18.199
			C4.355,22.7,2.115,26.233,2.315,29.016z"/>
		<path fill="#0079C1" d="M7.57,20.655c-0.152-0.723-0.296-1.442-0.393-2.159c-2.324,1.571-4.956,3.678-6.403,6.555
			c-0.013,0.025-0.026,0.048-0.038,0.075c0.007,0.023,0.016,0.054,0.02,0.08c0.09,0.392,0.28,0.923,0.498,1.463
			c0.262,0.695,0.56,1.373,0.896,2.021c0.102,0.207,0.166,0.334,0.166,0.326C2.115,26.233,4.355,22.7,7.57,20.655z"/>
		<path fill="#0079C1" d="M13.349,17.469c7.634-4.248,19.496-3.712,24.826-0.486c0.002,0,0.002,0,0.004,0.003
			c-0.004-0.024-0.011-0.044-0.015-0.064c-0.267-1.579-0.7-3.135-1.31-4.586c-0.06-0.145-0.124-0.29-0.188-0.433
			c-0.199-0.438-0.409-0.871-0.64-1.282c-0.05-0.007-0.103-0.007-0.153-0.011c-7.965-0.729-18.32,1.61-24.907,5.366
			c0.929,7.938,7.302,15.967,14.307,22.1c0.017,0.018,0.035,0.031,0.051,0.047c0.273-0.09,0.539-0.193,0.805-0.297
			c0.529-0.203,1.04-0.461,1.545-0.738c0.848-0.463,1.798-1.016,2.567-1.545C22.956,33.352,14.689,25.298,13.349,17.469z"/>
		<path fill="#0079C1" d="M13.709,3.401c-1.315,1.789-2.441,4.168-2.749,6.766c-0.046,0.415-0.085,0.83-0.087,1.258
			c0.615-0.367,1.259-0.706,1.903-1.042c0.822-5.721,5.755-9.067,8.159-9.362c0.215-0.029,0.588-0.099,0.977-0.124
			c-0.082-0.024-0.207-0.05-0.351-0.072c-0.274-0.045-1.391-0.212-2.491-0.229c-1.089-0.017-2.11,0.08-2.857,0.236
			c-0.026,0.017-0.053,0.043-0.082,0.064C15.354,1.463,14.5,2.326,13.709,3.401z"/>
		<path fill="#FFFFFF" d="M10.967,15.975c6.628-3.781,16.917-6.149,24.901-5.378c0.056,0.003,0.108,0.016,0.158,0.023
			c-1.133-2.061-2.637-3.891-4.419-5.402c-0.076,0.002-0.151,0.006-0.23,0.008c-5.802,0.291-12.765,2.12-18.601,5.156
			c-0.645,0.336-1.289,0.676-1.903,1.042c0.002-0.428,0.042-0.843,0.087-1.258c0.307-2.597,1.433-4.977,2.749-6.766
			c0.791-1.075,1.645-1.938,2.422-2.506c0.029-0.021,0.056-0.047,0.082-0.064c-2.517,0.399-4.868,1.284-6.96,2.563
			C8.99,3.554,8.723,3.703,8.47,3.872C8.458,3.897,8.446,3.927,8.434,3.956C8.38,4.073,8.326,4.187,8.273,4.309
			c-1.128,2.655-1.945,6.275-1.931,9.143c-2.262,1.703-4.902,3.88-6.239,5.803c-0.039,0.053-0.063,0.107-0.102,0.159
			c0,0.069-0.004,0.421,0,0.867c0,0.002,0,0.003,0,0.005c0.009,0.519,0.03,1.166,0.093,1.66c0.028,0.228,0.071,0.46,0.107,0.689
			c0.03,0.234,0.07,0.466,0.11,0.697c0.073,0.42,0.154,0.838,0.271,1.246c0.052,0.182,0.094,0.368,0.154,0.547
			c0.012-0.027,0.025-0.05,0.038-0.075c1.448-2.877,4.08-4.983,6.403-6.555c0.096,0.717,0.241,1.437,0.393,2.159
			c1.352,6.393,4.771,12.77,8.747,18.199c0.936,0.141,1.897,0.215,2.872,0.215c2.126,0,4.174-0.354,6.085-0.994
			C18.269,31.942,11.896,23.914,10.967,15.975z"/>
	</g>
	<g>
		<path fill="#0079C1" d="M138.188,34.67c1.222,0,2.171,0.947,2.171,2.131c0,1.209-0.949,2.145-2.184,2.145
			c-1.223,0-2.197-0.936-2.197-2.145c0-1.184,0.975-2.131,2.197-2.131H138.188z M138.162,35.098c-0.936,0-1.638,0.768-1.638,1.703
			c0,0.949,0.702,1.703,1.664,1.703c0.936,0.014,1.625-0.754,1.625-1.703c0-0.936-0.689-1.703-1.638-1.703H138.162z M137.838,37.907
			h-0.494v-2.119c0.194-0.039,0.468-0.078,0.818-0.078c0.403,0,0.585,0.064,0.741,0.17c0.117,0.09,0.208,0.26,0.208,0.455
			c0,0.246-0.182,0.428-0.441,0.506v0.025c0.207,0.066,0.324,0.234,0.39,0.521c0.064,0.324,0.104,0.455,0.156,0.52h-0.533
			c-0.065-0.078-0.104-0.26-0.169-0.508c-0.039-0.232-0.169-0.338-0.442-0.338h-0.233V37.907z M137.851,36.711h0.233
			c0.273,0,0.494-0.092,0.494-0.313c0-0.195-0.143-0.326-0.455-0.326c-0.13,0-0.221,0.014-0.272,0.027V36.711z"/>
	</g>
</g>
</svg>
